<svg width="225" height="45" viewBox="0 0 225 45" fill="none" xmlns="http://www.w3.org/2000/svg">
<path d="M62.784 18.56C62.4293 17.9067 61.916 17.412 61.244 17.076C60.5907 16.7213 59.816 16.544 58.92 16.544C57.3707 16.544 56.1293 17.0573 55.196 18.084C54.2627 19.092 53.796 20.4453 53.796 22.144C53.796 23.9547 54.2813 25.3733 55.252 26.4C56.2413 27.408 57.5947 27.912 59.312 27.912C60.488 27.912 61.4773 27.6133 62.28 27.016C63.1013 26.4187 63.6987 25.56 64.072 24.44H57.996V20.912H68.412V25.364C68.0573 26.5587 67.4507 27.6693 66.592 28.696C65.752 29.7227 64.6787 30.5533 63.372 31.188C62.0653 31.8227 60.5907 32.14 58.948 32.14C57.0067 32.14 55.2707 31.72 53.74 30.88C52.228 30.0213 51.0427 28.836 50.184 27.324C49.344 25.812 48.924 24.0853 48.924 22.144C48.924 20.2027 49.344 18.476 50.184 16.964C51.0427 15.4333 52.228 14.248 53.74 13.408C55.252 12.5493 56.9787 12.12 58.92 12.12C61.272 12.12 63.2507 12.6893 64.856 13.828C66.48 14.9667 67.5533 16.544 68.076 18.56H62.784ZM86.4921 16.376V32H81.7041V29.872C81.2188 30.5627 80.5561 31.1227 79.7161 31.552C78.8948 31.9627 77.9801 32.168 76.9721 32.168C75.7775 32.168 74.7228 31.9067 73.8081 31.384C72.8935 30.8427 72.1841 30.068 71.6801 29.06C71.1761 28.052 70.9241 26.8667 70.9241 25.504V16.376H75.6841V24.86C75.6841 25.9053 75.9548 26.7173 76.4961 27.296C77.0375 27.8747 77.7655 28.164 78.6801 28.164C79.6135 28.164 80.3508 27.8747 80.8921 27.296C81.4335 26.7173 81.7041 25.9053 81.7041 24.86V16.376H86.4921ZM94.7193 18.588C95.186 17.86 95.83 17.272 96.6513 16.824C97.4726 16.376 98.434 16.152 99.5353 16.152C100.823 16.152 101.99 16.4787 103.035 17.132C104.081 17.7853 104.902 18.7187 105.499 19.932C106.115 21.1453 106.423 22.5547 106.423 24.16C106.423 25.7653 106.115 27.184 105.499 28.416C104.902 29.6293 104.081 30.572 103.035 31.244C101.99 31.8973 100.823 32.224 99.5353 32.224C98.4526 32.224 97.4913 32 96.6513 31.552C95.83 31.104 95.186 30.5253 94.7193 29.816V39.448H89.9313V16.376H94.7193V18.588ZM101.551 24.16C101.551 22.9653 101.215 22.032 100.543 21.36C99.89 20.6693 99.078 20.324 98.1073 20.324C97.1553 20.324 96.3433 20.6693 95.6713 21.36C95.018 22.0507 94.6913 22.9933 94.6913 24.188C94.6913 25.3827 95.018 26.3253 95.6713 27.016C96.3433 27.7067 97.1553 28.052 98.1073 28.052C99.0593 28.052 99.8713 27.7067 100.543 27.016C101.215 26.3067 101.551 25.3547 101.551 24.16ZM113.723 18.588C114.19 17.86 114.834 17.272 115.655 16.824C116.477 16.376 117.438 16.152 118.539 16.152C119.827 16.152 120.994 16.4787 122.039 17.132C123.085 17.7853 123.906 18.7187 124.503 19.932C125.119 21.1453 125.427 22.5547 125.427 24.16C125.427 25.7653 125.119 27.184 124.503 28.416C123.906 29.6293 123.085 30.572 122.039 31.244C120.994 31.8973 119.827 32.224 118.539 32.224C117.457 32.224 116.495 32 115.655 31.552C114.834 31.104 114.19 30.5253 113.723 29.816V39.448H108.935V16.376H113.723V18.588ZM120.555 24.16C120.555 22.9653 120.219 22.032 119.547 21.36C118.894 20.6693 118.082 20.324 117.111 20.324C116.159 20.324 115.347 20.6693 114.675 21.36C114.022 22.0507 113.695 22.9933 113.695 24.188C113.695 25.3827 114.022 26.3253 114.675 27.016C115.347 27.7067 116.159 28.052 117.111 28.052C118.063 28.052 118.875 27.7067 119.547 27.016C120.219 26.3067 120.555 25.3547 120.555 24.16ZM143.899 16.376L134.099 39.42H128.947L132.531 31.468L126.175 16.376H131.523L135.135 26.148L138.719 16.376H143.899ZM159.771 12.344V16.18H154.563V32H149.775V16.18H144.567V12.344H159.771ZM176.901 23.936C176.901 24.384 176.874 24.8507 176.818 25.336H165.982C166.056 26.3067 166.364 27.0533 166.906 27.576C167.466 28.08 168.147 28.332 168.95 28.332C170.144 28.332 170.975 27.828 171.442 26.82H176.538C176.276 27.8467 175.8 28.7707 175.11 29.592C174.438 30.4133 173.588 31.0573 172.562 31.524C171.535 31.9907 170.387 32.224 169.118 32.224C167.587 32.224 166.224 31.8973 165.03 31.244C163.835 30.5907 162.902 29.6573 162.23 28.444C161.558 27.2307 161.222 25.812 161.222 24.188C161.222 22.564 161.548 21.1453 162.202 19.932C162.874 18.7187 163.807 17.7853 165.002 17.132C166.196 16.4787 167.568 16.152 169.118 16.152C170.63 16.152 171.974 16.4693 173.15 17.104C174.326 17.7387 175.24 18.644 175.894 19.82C176.566 20.996 176.901 22.368 176.901 23.936ZM172.002 22.676C172.002 21.8547 171.722 21.2013 171.162 20.716C170.602 20.2307 169.902 19.988 169.062 19.988C168.259 19.988 167.578 20.2213 167.018 20.688C166.476 21.1547 166.14 21.8173 166.01 22.676H172.002ZM178.475 24.188C178.475 22.564 178.802 21.1453 179.455 19.932C180.127 18.7187 181.051 17.7853 182.227 17.132C183.422 16.4787 184.785 16.152 186.315 16.152C188.275 16.152 189.909 16.6653 191.215 17.692C192.541 18.7187 193.409 20.1653 193.819 22.032H188.723C188.294 20.8373 187.463 20.24 186.231 20.24C185.354 20.24 184.654 20.5853 184.131 21.276C183.609 21.948 183.347 22.9187 183.347 24.188C183.347 25.4573 183.609 26.4373 184.131 27.128C184.654 27.8 185.354 28.136 186.231 28.136C187.463 28.136 188.294 27.5387 188.723 26.344H193.819C193.409 28.1733 192.541 29.6107 191.215 30.656C189.89 31.7013 188.257 32.224 186.315 32.224C184.785 32.224 183.422 31.8973 182.227 31.244C181.051 30.5907 180.127 29.6573 179.455 28.444C178.802 27.2307 178.475 25.812 178.475 24.188ZM205.985 16.208C207.777 16.208 209.214 16.8053 210.297 18C211.379 19.176 211.921 20.8 211.921 22.872V32H207.161V23.516C207.161 22.4707 206.89 21.6587 206.349 21.08C205.807 20.5013 205.079 20.212 204.165 20.212C203.25 20.212 202.522 20.5013 201.981 21.08C201.439 21.6587 201.169 22.4707 201.169 23.516V32H196.381V11.28H201.169V18.476C201.654 17.7853 202.317 17.2347 203.157 16.824C203.997 16.4133 204.939 16.208 205.985 16.208ZM217.488 32.224C216.648 32.224 215.957 31.9813 215.416 31.496C214.893 30.992 214.632 30.376 214.632 29.648C214.632 28.9013 214.893 28.276 215.416 27.772C215.957 27.268 216.648 27.016 217.488 27.016C218.309 27.016 218.981 27.268 219.504 27.772C220.045 28.276 220.316 28.9013 220.316 29.648C220.316 30.376 220.045 30.992 219.504 31.496C218.981 31.9813 218.309 32.224 217.488 32.224Z" fill="#4746BD"/>
<g clip-path="url(#clip0_462_1680)">
<path d="M41 22.5C41 11.1782 31.8218 2 20.5 2C9.17816 2 0 11.1782 0 22.5C0 33.8218 9.17816 43 20.5 43C31.8218 43 41 33.8218 41 22.5Z" fill="#4746BD"/>
<path fill-rule="evenodd" clip-rule="evenodd" d="M29.2337 19.7309L29.1573 19.7324L29.0053 19.7345L28.7772 19.7389L28.7008 19.74L28.4724 19.7444L28.3968 19.7454L28.3207 19.7469L28.1683 19.7491L27.9407 19.7534L27.8643 19.7545L27.7118 19.7574L27.6358 19.7585L27.4082 19.7629L27.3318 19.7636L27.1029 19.768L27.0273 19.769L26.9509 19.7705L26.8753 19.7719L26.7993 19.773L26.6469 19.7759L26.4948 19.7781L26.3424 19.781L26.2664 19.7821L26.0388 19.7865L25.962 19.7876L25.8099 19.7905L25.6579 19.7927L25.5059 19.7956L25.4299 19.7966L25.3539 19.7981L25.2774 19.7995L25.2014 19.8006L24.9734 19.805L24.897 19.8061L24.8214 19.8075L24.7445 19.8086L24.6693 19.8101L24.5929 19.8112L24.4405 19.8141L24.3645 19.8151L24.1365 19.8195L24.0604 19.8206L23.908 19.8235L23.8316 19.8242L23.756 19.8257L23.6796 19.8271L23.604 19.8286L23.5276 19.8297L23.3755 19.8326L23.2999 19.8337L23.0711 19.838L22.9191 19.8402L22.767 19.8431L22.691 19.8442L22.5386 19.8471L22.4622 19.8482L22.313 19.8511H22.3106L22.2345 19.8525L22.1581 19.8533L22.0061 19.8562L21.9305 19.8573L21.7016 19.8616L21.6256 19.8627L21.3976 19.8671L21.2456 19.8692L21.1696 19.8707L21.0931 19.8718L20.9407 19.8747L20.8651 19.8758L20.6367 19.8801L20.5606 19.8812L20.4846 19.8827L20.4082 19.8838L20.3326 19.8852L20.2562 19.8863L20.1806 19.8877C19.303 19.9153 18.4389 20.245 17.8074 20.8686C17.3123 21.3576 17.0354 21.9523 16.9709 22.5592C16.8949 23.2751 17.1192 24.0063 17.625 24.6034C17.7561 24.7581 17.9015 24.9062 18.0708 25.0402C18.1879 25.1327 18.312 25.2133 18.4389 25.2888C18.9804 25.6101 19.6 25.7767 20.2217 25.789L20.2981 25.7905L20.755 25.797L20.831 25.7978L20.907 25.7989L20.9834 25.8003L21.7448 25.8112L21.8208 25.8127L21.8968 25.8134L22.5061 25.8221L22.5822 25.8235L22.9626 25.829L23.039 25.8297L23.2671 25.833L23.3439 25.8344L23.8768 25.8421L23.9524 25.8428L24.1052 25.845L24.1812 25.8464L25.7039 25.8682L25.7799 25.8696L25.8272 25.8704L25.8506 25.8707L25.8428 25.8885L25.8128 25.9434L25.7824 25.9974L25.7536 26.0461L25.7228 26.0958L25.6895 26.1481L25.6555 26.2007L25.6209 26.2523L25.586 26.3042L25.5507 26.3554L25.4784 26.457L25.4512 26.4933L25.4143 26.5402L25.3748 26.5892L25.3354 26.6378L25.2955 26.6861L25.2142 26.7812L25.1727 26.8287L25.1312 26.8752L25.1032 26.9054L25.1012 26.9068L25.0654 26.9453L25.0535 26.9558L25.0211 26.9903L25.0055 27.0041L24.9767 27.035L24.957 27.0524L24.9311 27.0796L24.9081 27.0999L24.8859 27.1235L24.8584 27.1471L24.8399 27.1675L24.8087 27.1943L24.7934 27.211L24.7585 27.2412L24.7466 27.2542L24.708 27.2876L24.6998 27.2967L24.6751 27.3181L24.6278 27.3581L24.5781 27.3994L24.5284 27.4397L24.4787 27.4797L24.4278 27.52L24.3768 27.5595L24.2741 27.6379L24.2219 27.6764L24.1857 27.7022L24.1389 27.7352L24.0851 27.7719L24.0309 27.8082L23.9906 27.8343L23.9758 27.8438L23.9207 27.8797L23.8657 27.9153L23.8098 27.9501L23.7539 27.9846L23.6972 28.0191L23.6409 28.0529L23.6011 28.0761L23.5464 28.1066L23.4881 28.1386L23.4298 28.1701L23.3706 28.2013L23.3114 28.2322L23.2519 28.2627L23.1923 28.2928L23.0715 28.3524L23.0107 28.3814L22.9601 28.4046L22.9075 28.429L22.8451 28.4562L22.7826 28.4827L22.7202 28.5088L22.6573 28.5353L22.5945 28.5607L22.5312 28.5862L22.4671 28.6112L22.4038 28.6355L22.3393 28.6598L22.2752 28.6842L22.2251 28.702L22.1626 28.723L22.0973 28.7448L22.032 28.7659L21.9662 28.7873L21.8997 28.8076L21.8339 28.8279L21.7674 28.8483L21.7008 28.8679L21.6343 28.8867L21.5673 28.9056L21.4999 28.9245L21.4469 28.9383L21.3812 28.9542L21.313 28.971L21.2448 28.9866L21.177 29.0022L21.1083 29.0174L21.0397 29.0323L20.9711 29.0468L20.8331 29.0744L20.764 29.0878L20.6946 29.1006L20.6379 29.1104L20.5717 29.1213L20.5015 29.1318L20.3618 29.1521L20.2915 29.1615L20.151 29.1797L20.0808 29.188L20.0101 29.1964L19.9394 29.2036L19.8687 29.2113L19.8092 29.2167L19.7447 29.2218L19.6728 29.2269L19.6025 29.2313L19.5314 29.2356L19.4604 29.2396L19.3178 29.2461L19.2463 29.2487L19.1756 29.2509L19.0326 29.2545L18.9739 29.2548H18.9086L18.766 29.2527L18.6234 29.249L18.4804 29.2439L18.4089 29.2407L18.3374 29.2371L18.2668 29.233L18.1953 29.2287L18.1435 29.2247L18.0745 29.2186L18.003 29.212L17.9323 29.2048L17.8612 29.1975L17.7897 29.1891L17.7195 29.1812L17.6488 29.1721L17.5777 29.163L17.5666 29.1615L17.5621 29.1688L17.6081 29.179L17.6928 29.1975L17.777 29.2153L17.8444 29.2283L17.9274 29.2432L18.0128 29.2585L18.0987 29.273L18.1846 29.2868L18.2709 29.3006L18.3567 29.3136L18.4434 29.326L18.5297 29.3383L18.6168 29.3503L18.7035 29.3616L18.7902 29.3721L18.8621 29.3801L18.9443 29.3881L19.0318 29.3964L19.1193 29.4037L19.2069 29.4106L19.2948 29.4171L19.3819 29.4233L19.4702 29.4287L19.5577 29.4338L19.6456 29.4385L19.734 29.4429L19.8219 29.4462L19.8959 29.4483L19.9772 29.4498L20.0648 29.4509L20.1531 29.4512L20.2414 29.4509L20.3302 29.4501L20.4181 29.4491L20.5068 29.4476L20.5952 29.4454L20.6835 29.4429L20.7714 29.44L20.8602 29.4364L20.9325 29.4324L21.013 29.4273L21.1014 29.4211L21.1897 29.4139L21.2776 29.4066L21.366 29.3986L21.4535 29.3903L21.5418 29.3815L21.6293 29.3721L21.7177 29.3623L21.8052 29.3518L21.8931 29.3412L21.9564 29.3325L22.0414 29.3198L22.129 29.306L22.2156 29.2915L22.3031 29.2774L22.3899 29.2621L22.477 29.2461L22.5632 29.2301L22.6504 29.2131L22.7362 29.196L22.8229 29.1783L22.8993 29.1615L22.9651 29.1467L23.0501 29.1263L23.1356 29.1053L23.221 29.0835L23.3057 29.0613L23.3907 29.0389L23.4758 29.0156L23.56 28.992L23.6446 28.968L23.7285 28.9434L23.8073 28.9194L23.8628 28.902L23.9462 28.8744L24.0288 28.8464L24.1114 28.8178L24.194 28.7887L24.2762 28.7593L24.3583 28.7292L24.4401 28.6983L24.5214 28.6675L24.6028 28.6359L24.6743 28.6065L24.7269 28.5851L24.8074 28.5502L24.8867 28.515L24.966 28.4794L25.0453 28.4435L25.1242 28.4068L25.2812 28.332L25.3588 28.2939L25.4369 28.2551L25.4767 28.234L25.5503 28.1948L25.6263 28.1534L25.7019 28.111L25.7771 28.0681L25.8518 28.0249L25.9266 27.981L26.001 27.9371L26.0753 27.8921L26.1489 27.847L26.1887 27.8213L26.2282 27.7955L26.2524 27.7799L26.3243 27.7316L26.3954 27.6826L26.4665 27.6332L26.5367 27.5835L26.6066 27.533L26.6765 27.4822L26.7451 27.4314L26.8124 27.3809L26.8798 27.3294L26.8983 27.3148L26.9024 27.3112L26.9595 27.2658L26.9719 27.2542L27.0241 27.2128L27.0405 27.1972L27.0885 27.1598L27.1087 27.1399L27.1518 27.1057L27.1765 27.0825L27.2155 27.052L27.2435 27.0244L27.2788 26.9969L27.3112 26.9653L27.3466 26.9377L27.386 26.8999L27.4156 26.8763L27.4604 26.8338L27.4838 26.815L27.5331 26.7674L27.5512 26.7533L27.6058 26.701L27.6124 26.6955L27.6605 26.6494L27.7229 26.5866L27.7854 26.5234L27.8462 26.4599L27.9066 26.3964L27.9666 26.3322L28.0262 26.2675L28.0841 26.2036L28.142 26.1387L28.1909 26.0816L28.2275 26.0381L28.2805 25.9724L28.3331 25.9063L28.3844 25.8406L28.4354 25.7742L28.4855 25.7074L28.5352 25.641L28.5837 25.5738L28.6318 25.5066L28.6556 25.4718L28.6971 25.409L28.7407 25.3414L28.7834 25.2728L28.8261 25.2049L28.8672 25.1363L28.9083 25.0677L28.9486 24.9984L28.9876 24.9298L29.0233 24.8648L29.0389 24.8358L29.0743 24.7661L29.1088 24.6964L29.1429 24.6259L29.1758 24.5562L29.1778 24.5515L29.2082 24.4858L29.2403 24.4154L29.2715 24.3449L29.3015 24.2742L29.3129 24.2462L29.3375 24.183L29.3639 24.1119L29.39 24.0408L29.4149 23.9689L29.4392 23.8973L29.4629 23.8255L29.486 23.7543L29.5086 23.6817L29.5302 23.6098L29.5349 23.5931L29.5531 23.5213L29.571 23.449L29.5879 23.3771L29.6046 23.3038L29.6204 23.2316L29.6357 23.159L29.6503 23.0864L29.6644 23.0134L29.6776 22.9415L29.6799 22.927L29.6899 22.8537L29.6995 22.7811L29.7083 22.7081L29.7165 22.6347L29.7238 22.5614L29.7311 22.4881L29.7373 22.4151L29.7432 22.3418L29.7484 22.2685L29.7493 22.2517L29.7519 22.1835L29.7531 22.1105L29.754 22.0372L29.7543 21.9635L29.754 21.8902L29.7531 21.8172L29.7511 21.7439L29.749 21.6698L29.7461 21.5969L29.7429 21.5235L29.742 21.5141L29.7358 21.4411L29.7288 21.3678L29.7209 21.2945L29.7133 21.2215L29.7042 21.1485L29.6951 21.0756L29.6852 21.0026L29.6746 20.9293L29.6638 20.8567L29.6521 20.7833L29.65 20.7699L29.6368 20.7035L29.6216 20.6309L29.6064 20.5586L29.59 20.4864L29.573 20.4138L29.5557 20.3412L29.5382 20.2697L29.5194 20.1974L29.5004 20.1259L29.4808 20.0536L29.4608 19.9818L29.4585 19.9734L29.4368 19.9052L29.4134 19.834L29.3894 19.7632L29.3774 19.7284L29.31 19.7298L29.2337 19.7309Z" fill="white"/>
<path fill-rule="evenodd" clip-rule="evenodd" d="M18.6964 16.7114L18.6213 16.7211L18.5462 16.7312L18.4718 16.7419L18.3974 16.753L18.323 16.7645L18.2489 16.7763L18.1751 16.7891L18.1017 16.802L18.028 16.8153L17.9553 16.8289C17.8288 16.8479 17.7031 16.8726 17.5791 16.9034L17.5063 16.9188L17.4343 16.9342L17.3622 16.9503L17.2906 16.9667L17.2188 16.9836L17.1478 17.0008L17.0764 17.0187L17.0058 17.0369L16.9354 17.0559L16.8651 17.0745L16.7951 17.0942L16.7251 17.1142C16.6014 17.1447 16.479 17.1808 16.3584 17.2231L16.2891 17.2446L16.2207 17.2661L16.1518 17.2879L16.0835 17.3105L15.9475 17.3563L15.8802 17.3803L15.8126 17.4043L15.6787 17.4537L15.6121 17.4787L15.5459 17.5042L15.4799 17.5303C15.3596 17.5725 15.203 17.4841 15.0867 17.5378L15.0215 17.565L14.9566 17.5926L14.8917 17.6209L14.8271 17.6491L14.7629 17.6778L14.699 17.7068L14.6351 17.7365L14.5716 17.7662L14.5083 17.7967L14.4455 17.8271L14.3204 17.8894L14.2582 17.9209L14.1964 17.9528C14.0812 18.0068 13.9188 17.9921 13.8087 18.0573L13.7744 18.0759L13.7475 18.0906L13.6867 18.1242L13.6262 18.1579L13.5661 18.1919L13.5059 18.2267L13.4461 18.2614L13.3866 18.2965L13.3278 18.3319L13.2687 18.3681L13.2099 18.4042L13.1515 18.4408L13.0937 18.4776L13.0359 18.5149C12.9262 18.5793 12.8188 18.6502 12.7148 18.7268L12.6577 18.7648L12.6009 18.8034L12.5449 18.8421L12.4888 18.8811L12.433 18.9205L12.3773 18.9606L12.3223 19.0004L12.2672 19.0408L12.2122 19.082L12.1578 19.1228L12.1038 19.164L12.0501 19.2055L11.9964 19.2478L11.943 19.29L11.89 19.3326C11.7864 19.4085 11.5262 19.4014 11.429 19.4887L11.3774 19.5324L11.3254 19.5761L11.2228 19.6642L11.1721 19.7089L11.1211 19.7537L11.0712 19.7988L11.0209 19.8443L10.9709 19.8901L10.9213 19.9356L10.8724 19.9821L10.8231 20.0286L10.7749 20.0752L10.7266 20.1224L10.678 20.1701C10.5829 20.2564 10.4908 20.3484 10.4027 20.4458L10.4014 20.4475L10.3582 20.4909L10.3541 20.4955L10.3137 20.536L10.3076 20.5439L10.2695 20.5818L10.261 20.5925L10.226 20.6276L10.2148 20.6412L10.1825 20.6738L10.1686 20.6906L10.1394 20.7204L10.1234 20.74L10.0965 20.7669L10.0782 20.7895L10.0541 20.8138L10.033 20.8392L10.0116 20.8607L9.98813 20.8893L9.9698 20.9083L9.94397 20.9398L9.92766 20.9559L9.89978 20.9903L9.88619 21.0039L9.85561 21.0412L9.84542 21.0523L9.8128 21.0924L9.80463 21.1002L9.76931 21.1439L9.76386 21.1489L9.72646 21.1955L9.72377 21.198C9.63676 21.2947 9.55555 21.3949 9.48008 21.498L9.43864 21.5496L9.39682 21.6026L9.35571 21.6548L9.31459 21.7082L9.27415 21.7608L9.23373 21.8145L9.19361 21.8675L9.15387 21.9216L9.11445 21.976L9.07535 22.0297L9.03629 22.0841L8.99786 22.1393L8.95982 22.1937L8.92175 22.2488L8.88403 22.3043L8.84698 22.3598C8.77154 22.4629 8.70187 22.5689 8.63867 22.6774L8.60198 22.7332L8.53061 22.8457L8.49526 22.9026L8.46027 22.9595L8.42594 23.0164L8.39127 23.0734L8.3573 23.1306L8.32365 23.1883L8.25705 23.3043L8.22475 23.3623L8.19213 23.4207L8.15985 23.479L8.12858 23.5377L8.09698 23.5965L8.06605 23.6552C8.0025 23.7633 7.94575 23.8732 7.89479 23.9856L7.86454 24.0454L7.83463 24.1049L7.80506 24.1646L7.77618 24.2244L7.74763 24.2842L7.71907 24.3447L7.69087 24.4052L7.63581 24.5263L7.60864 24.5875L7.58213 24.6483L7.55563 24.7092L7.5298 24.7704L7.50397 24.832L7.47849 24.8936L7.45334 24.9552C7.4027 25.0669 7.35751 25.1804 7.31842 25.2953L7.29428 25.3576L7.27086 25.4196L7.2474 25.4818L7.22429 25.5441L7.20186 25.6065L7.1577 25.7325L7.13626 25.7955L7.11485 25.8581L7.07341 25.9849L7.053 26.0483L7.03329 26.1116L7.01393 26.1754L7.00816 26.459L6.99727 26.4981C7.01358 26.5507 7.02685 26.6037 7.04521 26.6556L7.06591 26.7201L7.08665 26.7845L7.10841 26.8493L7.13017 26.9134L7.15257 26.9778L7.175 27.0423L7.19811 27.106L7.22192 27.1705L7.24605 27.2346L7.2705 27.2979L7.29566 27.362L7.32079 27.4257L7.35274 27.5038C7.39046 27.6083 7.43295 27.7115 7.48086 27.8128L7.50772 27.8758L7.53525 27.9381L7.5631 28.0011L7.59165 28.0641L7.62021 28.1268L7.64943 28.1894L7.67933 28.2517L7.70923 28.314L7.73981 28.3763L7.77073 28.4383L7.80233 28.5002L7.83463 28.5621C7.88389 28.6678 8.06629 28.929 8.12679 29.03L8.16009 29.0915L8.19338 29.1524L8.22739 29.2133L8.26171 29.2738L8.29706 29.3346L8.33205 29.3951L8.3684 29.4553L8.40442 29.5155L8.44146 29.5752L8.47886 29.6354L8.51623 29.6955L8.55462 29.755L8.59337 29.8144C8.6532 29.9153 8.71845 30.0135 8.78879 30.109L8.82853 30.1674L8.86933 30.2261L8.91009 30.2845L8.95121 30.3429L8.99303 30.4008L9.03517 30.4585L9.07799 30.5165L9.12113 30.5741L9.16465 30.6314L9.20881 30.6891L9.253 30.746L9.29819 30.8029L9.34373 30.8595C9.41372 30.9544 9.48919 31.0467 9.56973 31.1355L9.61661 31.1914L9.66318 31.2469L9.71109 31.3024L9.75935 31.3578L9.80794 31.4125L9.85687 31.4679L9.90616 31.5223L10.0071 31.6313L10.0581 31.6852L10.1097 31.7391L10.1614 31.7929L10.214 31.8462C10.2936 31.9344 10.3785 32.0196 10.4686 32.1004L10.5182 32.1499L10.5236 32.154L10.5685 32.1988L10.5777 32.2065L10.6191 32.248L10.632 32.2586L10.6701 32.2967L10.6871 32.3107L10.7221 32.3453L10.7428 32.3626L10.7741 32.3933L10.7989 32.4132L10.8268 32.4413L10.8553 32.4651L10.8798 32.4894L10.9124 32.5157L10.9335 32.5368L10.9702 32.5667L10.9875 32.5842L11.0283 32.617L11.0422 32.6311L11.0867 32.6671L11.0973 32.6777L11.1421 32.7146L11.1472 32.7198L11.1945 32.7582L11.1968 32.7605C11.2859 32.8405 11.3776 32.9155 11.4721 32.9849L11.5255 33.0276L11.5788 33.0704L11.6325 33.1123L11.6872 33.1544L11.7416 33.1963L11.7953 33.2373L11.85 33.278L11.9051 33.3184L11.9598 33.3589L12.0151 33.3987L12.0706 33.4379L12.1273 33.478L12.1854 33.519L12.303 33.5993C12.3975 33.6687 12.495 33.7334 12.5946 33.7923L12.7135 33.8687L12.7733 33.9059L12.8331 33.9437L12.8933 33.98L12.9538 34.0166L13.0143 34.052L13.0748 34.0878L13.1964 34.1575L13.2579 34.1914L13.3191 34.2254L13.3806 34.2582C13.4795 34.3171 13.5804 34.3704 13.6834 34.4181L13.7452 34.4503L13.8071 34.4814L13.8693 34.5124L13.9318 34.5429L13.9947 34.5733L14.0569 34.6032L14.1197 34.6325L14.1826 34.6615L14.2458 34.6896L14.309 34.7183L14.3726 34.7458L14.4358 34.7731L14.4993 34.8L14.5629 34.8261C14.6651 34.8738 14.7691 34.9154 14.8745 34.9523L14.9387 34.9772L15.0026 35.0021L15.0672 35.0264L15.1318 35.0498L15.196 35.0735L15.2609 35.0964L15.3255 35.1189L15.4165 35.1503L15.4549 35.1631L15.5854 35.2053L15.651 35.2258L15.7159 35.2457C15.7635 35.2621 15.8117 35.2741 15.8597 35.2885C15.9388 35.3137 16.0184 35.3389 16.0986 35.3582L16.1642 35.3763L16.2301 35.3942L16.296 35.4118L16.3616 35.4294L16.4935 35.4624L16.5597 35.4786L16.6263 35.4938L16.6919 35.509H16.8467L16.9137 35.5234L16.9799 35.5371L17.0462 35.5509L17.1128 35.5638C17.2188 35.5893 17.3259 35.6092 17.4333 35.6241L17.5002 35.6361L17.5665 35.6472L17.6334 35.6587L17.7004 35.6692L17.767 35.6795L17.8339 35.6894L17.9009 35.6988L17.9675 35.7073L18.0348 35.7164L18.1017 35.7246L18.169 35.7325L18.2356 35.7395L18.3029 35.7465L18.3702 35.753C18.4766 35.7682 18.5843 35.7781 18.6913 35.782L18.7586 35.7878L18.8256 35.7928L18.9598 35.8016L19.0268 35.8054L19.094 35.8089L19.2283 35.8148L19.3628 35.8189L19.4301 35.8203L19.4967 35.8215L19.564 35.8221L19.631 35.8227H19.6982C19.8046 35.8265 19.9117 35.8259 20.0177 35.8197L20.0853 35.8186L20.1516 35.8168L20.2185 35.8148L20.3524 35.8098L20.4194 35.8068L20.5529 35.7989L20.6199 35.7945L20.6865 35.7899L20.7531 35.7849L20.8863 35.7735L20.9526 35.7673C21.0586 35.7617 21.1639 35.7506 21.2686 35.7345L21.3349 35.7272L21.4674 35.7117L21.533 35.7029L21.5996 35.6941L21.6655 35.6847L21.7311 35.6751L21.7971 35.6654L21.863 35.6549L21.9282 35.6443L21.9945 35.6329L22.0594 35.6218L22.1253 35.6095L22.1909 35.5975L22.2558 35.5849C22.3598 35.569 22.4635 35.548 22.5654 35.5219L22.6307 35.5081L22.6952 35.4944L22.7605 35.4794L22.8247 35.4648L22.8896 35.4496L22.9539 35.434L23.0184 35.4179L23.0823 35.4018L23.1469 35.3851L23.2746 35.3506L23.3389 35.3327L23.4021 35.3148L23.466 35.2961L23.5295 35.2774L23.5931 35.258C23.6393 35.246 23.6845 35.2296 23.73 35.2156C23.7637 35.2047 23.7977 35.1968 23.831 35.1842L23.8942 35.1646L23.9567 35.1444L24.0192 35.1236L24.0821 35.1025L24.2072 35.0595L24.3315 35.0153L24.393 34.9924L24.4552 34.969L24.5171 34.9453L24.5782 34.9218L24.6398 34.8975L24.7013 34.8726L24.7621 34.848L24.8229 34.8226L24.8664 34.8044C24.929 34.7789 24.9918 34.7549 25.0526 34.7256L25.1131 34.6998L25.1733 34.6732L25.2338 34.6465L25.2916 34.6202L25.2936 34.6193L25.3538 34.5921L25.4727 34.5361L25.5322 34.5077L25.5913 34.4787L25.6501 34.4497L25.7092 34.4202L25.7673 34.3903L25.8261 34.3604L25.9423 34.2986C26.0368 34.2529 26.1296 34.2026 26.22 34.1469L26.2771 34.115L26.3345 34.0828L26.3913 34.0503L26.448 34.0175L26.5047 33.9841L26.5608 33.9504L26.6172 33.9162L26.673 33.8819L26.7287 33.8473L26.7841 33.8122L26.8398 33.7768L26.95 33.705L27.0043 33.6687L27.0587 33.6318C27.1487 33.5767 27.2361 33.5164 27.3214 33.4517L27.3751 33.4136L27.4281 33.3758L27.4815 33.3372L27.5345 33.2985L27.5871 33.259L27.6391 33.22L27.6915 33.1802L27.7434 33.1398L27.7951 33.0997L27.8464 33.059L27.8977 33.0177L27.9487 32.9758L27.9997 32.9342L28.0496 32.892L28.0588 32.885C28.122 32.8338 28.1856 32.7825 28.2454 32.7263L28.2953 32.6838L28.3446 32.6408L28.3942 32.5971L28.4428 32.5535L28.4918 32.5093L28.5404 32.4651L28.5883 32.4202L28.6365 32.3751L28.7313 32.2838L28.7782 32.2375L28.8714 32.1444L28.9176 32.0972C28.9957 32.0243 29.0709 31.9461 29.1429 31.8635L29.1446 31.8612L29.1854 31.819L29.1898 31.8132L29.2275 31.7739L29.2346 31.7648L29.2693 31.7288L29.2792 31.7165L29.3106 31.6834L29.3232 31.6673L29.3522 31.6374L29.3671 31.6181L29.3929 31.5915L29.4114 31.5683L29.4333 31.5449L29.4544 31.5182L29.4737 31.4977L29.4977 31.4679L29.5139 31.4509L29.5402 31.4178L29.5537 31.4037L29.583 31.3663L29.5929 31.3557L29.6248 31.3153L29.6319 31.3077L29.6664 31.2634L29.6705 31.2591L29.708 31.2118L29.7086 31.2107C29.7806 31.1277 29.8474 31.0421 29.9095 30.9544L29.9496 30.901L29.9895 30.8484L30.0296 30.7947L30.0688 30.741L30.1081 30.6869L30.1464 30.6321L30.1845 30.5777L30.2229 30.5222L30.2603 30.4674L30.2972 30.4116L30.3347 30.355L30.371 30.2992C30.4331 30.2111 30.4902 30.1209 30.5424 30.0285L30.5781 29.9716L30.6129 29.9139L30.6478 29.8559L30.7157 29.7392L30.7491 29.6805L30.7825 29.6211L30.8478 29.5022L30.8797 29.442L30.9114 29.3815L30.943 29.3207C30.9945 29.229 31.042 29.1349 31.0839 29.0393L31.114 28.9777L31.1436 28.9161L31.1732 28.8538L31.2016 28.7915L31.23 28.7285L31.2584 28.6655L31.2859 28.6024L31.3132 28.5384L31.3181 28.5258L31.3398 28.4743L31.3662 28.4102L31.3919 28.3454L31.4174 28.2802C31.4596 28.185 31.4965 28.088 31.5287 27.9902L31.553 27.9243L31.5767 27.8581L31.5999 27.7919L31.623 27.7253L31.6453 27.6587L31.6675 27.5914L31.6889 27.5237L31.7103 27.4557L31.7308 27.3876L31.7516 27.3193L31.7709 27.2502C31.8034 27.1528 31.8306 27.0536 31.8535 26.9537L31.8714 26.8846L31.8898 26.8144L31.9071 26.7446L31.9238 26.6744L31.9405 26.6039L31.9566 26.5327L31.9724 26.4614L31.9876 26.3898L32.0023 26.3182L32.0166 26.2459L32.0301 26.1732C32.0529 26.0737 32.0705 25.9738 32.0837 25.8728L32.0957 25.7998L32.108 25.7264L32.1191 25.653L32.1297 25.5789L32.1399 25.5047L32.1496 25.4303L32.1589 25.3554L32.1677 25.2803L32.1759 25.2051L32.1838 25.1292L32.1912 25.0533C32.2043 24.9527 32.2125 24.8521 32.2166 24.7511L32.2222 24.6748L32.2272 24.5979L32.2319 24.5212L32.2363 24.4435L32.2398 24.3666L32.2427 24.2885L32.2456 24.2101L32.2477 24.1317L32.2488 24.0529L32.2494 24.0268L32.2497 23.9738L32.2503 23.8943C32.2541 23.7941 32.2538 23.6935 32.2483 23.5925L32.2474 23.5137L32.2453 23.4335L32.2433 23.353L32.2401 23.2728L32.2368 23.1915L32.233 23.1109L32.2283 23.0293L32.2231 22.9477L32.2178 22.8657L32.2114 22.7837L32.2046 22.7006C32.1944 22.5009 32.1657 22.3018 32.1185 22.107C31.987 21.5098 31.6845 20.947 31.2118 20.5073C30.6024 19.9409 29.8296 19.686 29.0739 19.7315L28.9481 19.7343L28.8849 19.7354L28.7592 19.7383H28.7524L28.7623 19.7727L28.782 19.8425L28.8014 19.9126L28.8194 19.9799L28.8214 19.9882L28.8377 20.0591L28.854 20.1303L28.8697 20.2008L28.8853 20.2721L28.8999 20.3426L28.9142 20.4142L28.9281 20.4858L28.9417 20.5571L28.9543 20.6284L28.9669 20.7L28.9777 20.7655L28.9794 20.7787L28.9893 20.851L28.9981 20.9226L29.0069 20.9949L29.0151 21.0669L29.0226 21.1389L29.0301 21.2105L29.0365 21.2828L29.043 21.3551L29.0487 21.4275L29.0538 21.4994L29.0545 21.5087L29.0572 21.5811L29.0596 21.653L29.0613 21.7261L29.063 21.7984L29.0637 21.8704L29.064 21.9427L29.0637 22.0154L29.063 22.0877L29.062 22.1596L29.06 22.227L29.0593 22.2434L29.0549 22.3157L29.0501 22.3881L29.045 22.46L29.0389 22.5324L29.0328 22.6047L29.026 22.677L29.0188 22.749L29.0107 22.8206L29.0025 22.8929L29.0005 22.9072L28.9896 22.9781L28.9781 23.0501L28.9658 23.1213L28.9533 23.1933L28.9404 23.2645L28.9264 23.3369L28.9125 23.4077L28.8975 23.479L28.8826 23.5499L28.8788 23.5664L28.8608 23.6373L28.8421 23.7089L28.8231 23.779L28.8034 23.8499L28.7834 23.9204L28.7626 23.9913L28.7412 24.0615L28.7195 24.1317L28.6991 24.194L28.6896 24.2216L28.6647 24.2914L28.6389 24.3608L28.6124 24.4303L28.5873 24.4951L28.5856 24.4997L28.5584 24.5685L28.5302 24.6379L28.5016 24.7067L28.4724 24.7754L28.4595 24.8041L28.4299 24.8682L28.3976 24.9358L28.3643 25.0042L28.3303 25.0719L28.2964 25.1396L28.261 25.2065L28.2257 25.2742L28.1896 25.3408L28.1553 25.4027L28.1356 25.4371L28.0959 25.5033L28.0557 25.5696L28.0146 25.6351L27.9732 25.701L27.9311 25.7665L27.8886 25.8313L27.8451 25.8964L27.8012 25.9613L27.771 26.0042L27.7305 26.0604L27.6826 26.1245L27.6347 26.1875L27.5854 26.2512L27.5358 26.3146L27.4858 26.3773L27.4356 26.4399L27.3839 26.5022L27.3322 26.5642L27.2925 26.6096L27.2871 26.615L27.2419 26.6666L27.2269 26.6805L27.1861 26.7274L27.1668 26.746L27.1297 26.788L27.1053 26.8112L27.0726 26.8485L27.0434 26.8757L27.0165 26.9068L26.9873 26.934L26.9642 26.9612L26.9319 26.9913L26.9116 27.0142L26.8759 27.0479L26.8592 27.0676L26.8195 27.1044L26.8059 27.1199L26.7627 27.1606L26.7525 27.1721L26.7053 27.2169L26.7019 27.2204L26.6866 27.2348L26.6309 27.2856L26.5751 27.3354L26.5184 27.3855L26.4606 27.4356L26.4028 27.4854L26.3447 27.5345L26.2859 27.5831L26.2271 27.6315L26.1676 27.6791L26.1476 27.6945L26.115 27.7199L26.082 27.7453L26.0212 27.7897L25.9597 27.8341L25.8982 27.8774L25.8363 27.9208L25.7744 27.9634L25.7123 28.0056L25.6497 28.0475L25.5869 28.0883L25.526 28.127L25.4931 28.1478L25.4285 28.1861L25.3643 28.2237L25.2345 28.2974L25.1692 28.3336L25.1036 28.369L25.038 28.4041L24.9725 28.4388L24.9059 28.4732L24.8623 28.4943L24.8032 28.5233L24.736 28.5545L24.6686 28.5849L24.601 28.6154L24.5331 28.6451L24.4651 28.6741L24.3968 28.7027L24.3285 28.731L24.2602 28.7586L24.1912 28.7858L24.1453 28.803L24.0801 28.8266L24.0107 28.8509L23.9407 28.8746L23.8711 28.8978L23.8007 28.9207L23.7304 28.9429L23.6604 28.9648L23.5897 28.9863L23.519 29.007L23.4486 29.0271L23.3943 29.0418L23.3311 29.0582L23.2594 29.0758L23.1883 29.0926L23.1163 29.1094L23.0449 29.1252L22.9729 29.1409L22.9012 29.156L22.8288 29.1699L22.7571 29.1843L22.6847 29.1979L22.6144 29.2104L22.562 29.219L22.4893 29.2294L22.4169 29.2398L22.3439 29.2494L22.2715 29.2587L22.1984 29.2673L22.126 29.2755L22.053 29.2834L21.9802 29.2906L21.9072 29.2977L21.8341 29.3038L21.7675 29.3088L21.7077 29.3128L21.6343 29.3164L21.5616 29.3192L21.4885 29.3218L21.4154 29.3239L21.342 29.3253L21.2693 29.3264L21.1959 29.3271L21.1228 29.3275L21.0498 29.3271L20.9774 29.326L20.9101 29.3246L20.8489 29.3225L20.7762 29.3192L20.7031 29.3149L20.6304 29.3103L20.558 29.3053L20.485 29.2999L20.4129 29.2938L20.3402 29.2874L20.2678 29.2806L20.1954 29.2734L20.123 29.2652L20.0551 29.2573L19.9956 29.2494L19.9239 29.239L19.8522 29.2279L19.7802 29.2161L19.7088 29.2039L19.6371 29.1918L19.5661 29.1789L19.4947 29.1653L19.4237 29.1517L19.3526 29.1373L19.282 29.1223L19.2133 29.1076L19.1576 29.0948L19.0879 29.0772L19.0179 29.0589L18.9798 29.0489L18.9479 29.0403L18.9051 29.0289L18.8755 29.0239L18.8242 29.0142L18.7797 29.006L18.7216 28.9934L18.6638 28.9809L18.606 28.968L18.5479 28.9544L18.4902 28.9408L18.4327 28.9265L18.3749 28.9118L18.3175 28.8968L18.2604 28.8814L18.2067 28.8663L18.169 28.8552L18.1123 28.8373L18.0558 28.8191L17.9991 28.8001L17.9427 28.7815L17.8863 28.7618L17.7741 28.7217L17.7181 28.7009L17.6623 28.6794L17.613 28.6601L17.5773 28.6454L17.522 28.6214L17.4673 28.5978L17.4122 28.5734L17.3035 28.5233L17.2494 28.4975L17.1951 28.4714L17.141 28.4449L17.0873 28.4181L17.0595 28.4034L17.0085 28.3758L16.9561 28.3465L16.9031 28.3164L16.8508 28.2863L16.7988 28.2555L16.7465 28.2244L16.6951 28.1929L16.6435 28.161L16.5919 28.1284L16.5637 28.1101L16.5195 28.0808L16.4692 28.0457L16.4192 28.0099L16.3696 27.9745L16.32 27.9383L16.2707 27.9018L16.2214 27.8646L16.1732 27.8277L16.1256 27.7908L16.0784 27.7536L16.0651 27.7425L16.0624 27.7396L16.0223 27.707L16.0131 27.6981L15.9761 27.6676L15.9645 27.6562L15.9305 27.6286L15.9159 27.6139L15.885 27.5889L15.8677 27.5717L15.8401 27.5491L15.8201 27.5291L15.7956 27.5087L15.7718 27.4854L15.7474 27.4653L15.7188 27.437L15.6981 27.4199L15.6661 27.388L15.6491 27.3741L15.6138 27.339L15.6009 27.3286L15.5622 27.2899L15.5574 27.286L15.5231 27.2516L15.4334 27.1571L15.3892 27.1102L15.3457 27.0625L15.3025 27.0142L15.2723 26.9802L15.2597 26.9662L15.2176 26.9183L15.1758 26.8696L15.1404 26.8266L15.1136 26.7937L15.0748 26.7443L15.0364 26.6941L14.9991 26.6447L14.9617 26.5943L14.9246 26.5438L14.8883 26.4933L14.8523 26.4424L14.8169 26.3916L14.7989 26.3647L14.768 26.3171L14.7353 26.2656L14.7034 26.2137L14.6718 26.161L14.6402 26.1088L14.6096 26.0565L14.5794 26.0035L14.5495 25.9505L14.5223 25.9011L14.5104 25.8785L14.4832 25.8252L14.4567 25.7711L14.4305 25.7171L14.405 25.6634L14.3796 25.6089L14.3544 25.5545L14.3303 25.5001L14.3065 25.4457L14.2973 25.4242L14.2776 25.3752L14.2562 25.3197L14.2355 25.2642L14.2151 25.2087L14.195 25.1532L14.1753 25.0973L14.1563 25.0414L14.1379 24.9856L14.1196 24.9294L14.1155 24.9165L14.0992 24.8599L14.0836 24.8034L14.0689 24.7472L14.054 24.6902L14.0397 24.6337L14.0258 24.5764L14.0122 24.5195L13.9989 24.4622L13.9864 24.4059L13.9843 24.3945L13.9738 24.3372L13.9636 24.2792L13.9541 24.2219L13.9446 24.1643L13.9357 24.1063L13.9272 24.0486L13.9191 23.991L13.9116 23.933L13.9041 23.875L13.9028 23.8617L13.8977 23.808L13.8929 23.7497L13.8885 23.6917L13.8847 23.6333L13.881 23.5753L13.8776 23.5169L13.8749 23.4582L13.8725 23.3999L13.8691 23.2832V23.2756L13.8695 23.2176L13.8701 23.1589L13.8712 23.1002L13.8729 23.0418L13.8749 22.9835L13.8773 22.9251L13.88 22.8668L13.8834 22.8084L13.8868 22.75L13.8905 22.6913L13.8915 22.6806L13.8966 22.6272L13.9028 22.5689L13.9095 22.5105L13.9163 22.4525L13.9238 22.3942L13.9317 22.3358L13.9398 22.2782L13.9483 22.2198L13.9571 22.1614L13.9667 22.1034L13.9762 22.0454L13.9775 22.0386L13.9881 21.9835L14 21.9259L14.0125 21.8686L14.0251 21.8109L14.038 21.7536L14.0513 21.696L14.0652 21.6387L14.0791 21.5814L14.0938 21.5245L14.1087 21.4672L14.1237 21.4103L14.1383 21.3591L14.14 21.3516L14.1573 21.295L14.1753 21.2384L14.1933 21.1822L14.2117 21.1264L14.2303 21.0698L14.2497 21.0139L14.2691 20.9581L14.2888 20.9026L14.3092 20.8464L14.3296 20.7909L14.3506 20.7354L14.3697 20.6871L14.3717 20.6824L14.3945 20.6273L14.4179 20.5729L14.4414 20.5184L14.4655 20.464L14.4896 20.4099L14.5392 20.3018L14.5648 20.2485L14.5902 20.1944L14.6426 20.0877L14.6674 20.0394L14.6946 19.9885L14.7231 19.9363L14.752 19.8843L14.7812 19.8324L14.841 19.7293L14.8713 19.6785L14.9019 19.6269L14.9328 19.5761L14.9637 19.5252L14.9953 19.4744L15.0245 19.4297L15.0527 19.3863L15.0867 19.3373L15.1204 19.2882L15.155 19.2395L15.1894 19.1908L15.2247 19.1425L15.2597 19.0945L15.3311 18.9986L15.3674 18.9513L15.4038 18.904L15.4398 18.8582L15.4639 18.8285L15.4721 18.8203L15.5023 18.783L15.5132 18.7723L15.5418 18.7376L15.555 18.7243L15.5805 18.6924L15.5968 18.6763L15.6199 18.6477L15.6386 18.6287L15.6597 18.603L15.6811 18.5815L15.6995 18.5586L15.7239 18.5346L15.7402 18.5145L15.7667 18.4877L15.7807 18.4708L15.8102 18.4411L15.8218 18.4268L15.8534 18.3949L15.8626 18.3838L15.8972 18.3488L15.9013 18.3437L15.9292 18.3158L15.9723 18.2743L16.0155 18.2335L16.0593 18.1923L16.0831 18.1704L16.1032 18.1518L16.1477 18.1114L16.2367 18.0312L16.2816 17.9921L16.3271 17.9528L16.373 17.9137L16.4076 17.8855L16.4515 17.8504L16.4994 17.8138L16.547 17.7773L16.5949 17.7412L16.6432 17.7053L16.6917 17.6696L16.7404 17.6348L16.7889 17.5997L16.8386 17.5654L16.8878 17.531L16.9218 17.5084L16.9269 17.5052L16.9779 17.473L17.0289 17.4415L17.0805 17.4096L17.1322 17.3785L17.1845 17.3477L17.2365 17.3172L17.2892 17.2872L17.3415 17.2574L17.3949 17.2278L17.4418 17.203L17.4948 17.1762L17.5491 17.1493L17.6042 17.1228L17.6589 17.097L17.7697 17.0455L17.8254 17.0208L17.8819 16.9961L17.9376 16.9717L17.9916 16.9506L18.0487 16.9288L18.1065 16.9077L18.1646 16.8862L18.223 16.8654L18.3399 16.8253L18.3987 16.806L18.4582 16.787L18.4681 16.7841L18.5194 16.7687L18.5802 16.7519L18.7012 16.7204L18.7624 16.705L18.7773 16.7014L18.7719 16.7018L18.6964 16.7114Z" fill="#E1E1F9"/>
<path fill-rule="evenodd" clip-rule="evenodd" d="M27.7405 9.52353L27.685 9.52321L27.6291 9.52324L27.5739 9.52262L27.5181 9.52265L27.4622 9.52233L27.407 9.52239L27.3512 9.52206L27.2959 9.52212L27.2401 9.5218L27.1845 9.52186L27.129 9.52119L27.0735 9.52124L27.0179 9.52092L26.9621 9.52098L26.9065 9.52066L26.851 9.52072L26.7955 9.52039L26.7399 9.52045L26.6844 9.51978L26.6289 9.51949L26.5733 9.51955L26.5175 9.51922L26.462 9.51925L26.4064 9.51896L26.3506 9.51899L26.184 9.51808L26.1284 9.51811L26.0729 9.51782L26.0173 9.51785L25.9615 9.51755L25.9063 9.51758L25.8505 9.51694L25.7949 9.51697L25.7394 9.51668L25.6838 9.5167L25.6283 9.51641L25.5728 9.51644L25.5169 9.51615L25.4614 9.51618L25.4059 9.51553L25.3503 9.51556L25.2948 9.51527L25.2389 9.5153L25.1279 9.51468L25.0726 9.51474L24.9057 9.51383L24.8499 9.51386L24.7943 9.51354L24.7388 9.5136L24.6836 9.51331L24.6277 9.51334L24.4608 9.5124L24.4053 9.51246L24.3498 9.51214L24.2945 9.51219L24.2384 9.51187L24.1831 9.51193L24.1276 9.51129L24.0717 9.51132L24.0162 9.51099L23.9607 9.51105L23.9051 9.51073L23.8493 9.51079L23.7385 9.51017L23.6827 9.50985L23.6272 9.50956L23.5716 9.50962L23.5158 9.5093L23.4602 9.50932L23.4047 9.50903L23.3492 9.50906L23.1826 9.50815L23.1267 9.50818L23.0712 9.50789L23.0156 9.50792L22.9598 9.50763L22.9046 9.50766L22.7377 9.50675L22.6821 9.50678L22.6269 9.50648L22.5711 9.50651L22.5155 9.50622L22.4597 9.50625L22.4041 9.50596L22.3489 9.50531L22.2931 9.50534L22.2375 9.50505L22.1823 9.50508L22.1261 9.50476L22.0706 9.50481L21.904 9.50391L21.8482 9.50394L21.7932 9.50364L21.7371 9.50367L21.6819 9.50338L21.6263 9.50341L21.4591 9.50247L21.4039 9.50253L21.348 9.50221L21.2925 9.50227L21.2369 9.50194L21.1814 9.502L20.959 9.50077L20.9034 9.5008L20.8479 9.50051L20.7924 9.50057L20.7365 9.50025L20.6813 9.5003L20.6255 9.49963L20.5699 9.49966L20.5147 9.49937L20.4585 9.4994L20.4033 9.4991L20.3475 9.49913L20.1808 9.49822L20.1253 9.49828L20.0698 9.49796L20.0142 9.49802L19.9587 9.4977L19.9029 9.49773L19.736 9.49682L19.6807 9.49688L19.6249 9.49656L19.5693 9.49659L19.4583 9.496L19.403 9.49603L19.3469 9.49536L19.2917 9.49541L19.2361 9.49512L19.1269 9.49284L19.0573 9.49167L18.9877 9.49085L18.9183 9.49073L18.8496 9.49099L18.7808 9.49193L18.7117 9.49322L18.5752 9.49723L18.5067 9.49992L18.371 9.50678L18.3036 9.51123C18.19 9.51334 18.0765 9.52133 17.9637 9.53559L17.8294 9.54737L17.7625 9.5536L17.6293 9.56816L17.5632 9.57583L17.4311 9.59323L17.3653 9.60231L17.2998 9.61206L17.2346 9.62219L17.169 9.63265L17.1044 9.64419C16.9922 9.65777 16.8803 9.67801 16.7698 9.70387L16.7051 9.71611L16.641 9.7287L16.5769 9.742L16.4491 9.77L16.3858 9.7847L16.3222 9.79975L16.2592 9.81518L16.1965 9.83062L16.1337 9.84675L16.0088 9.8804C15.8986 9.90591 15.7893 9.93739 15.6814 9.97447L15.6194 9.99307L15.5584 10.0113L15.4968 10.031L15.4357 10.0503L15.3749 10.0703L15.3141 10.0907L15.2539 10.1114L15.1934 10.1325L15.1335 10.154L15.0735 10.1761L15.0138 10.1983L14.9545 10.2208L14.8953 10.2443C14.7877 10.2811 14.682 10.3235 14.5775 10.3725L14.5189 10.3964L14.4607 10.4211L14.4024 10.4461L14.3445 10.4714L14.2868 10.4971L14.2293 10.5235L14.1719 10.5503L14.1148 10.5771L14.0579 10.6045L14.0014 10.6317L13.8888 10.688L13.8328 10.717L13.7771 10.7462C13.6736 10.7942 13.5716 10.8482 13.4721 10.9082L13.417 10.9386L13.3621 10.9692L13.3075 10.9999L13.2532 11.031L13.1989 11.0627L13.1449 11.0945L13.0912 11.1266L13.038 11.1594L12.9846 11.1922L12.9314 11.2254L12.8785 11.2589L12.774 11.3268C12.6748 11.3864 12.5775 11.451 12.4831 11.522L12.4313 11.5573L12.3799 11.593L12.329 11.6283L12.2782 11.6647L12.2276 11.7011L12.177 11.7382L12.127 11.775L12.077 11.8125L12.0269 11.8503L11.9775 11.8885L11.9283 11.9267L11.8795 11.9652L11.8306 12.0045L11.782 12.0434L11.7337 12.0833C11.6395 12.1536 11.5488 12.2296 11.4599 12.3116L11.4128 12.3516L11.3654 12.3923L11.3185 12.4333L11.2717 12.4747L11.2254 12.5162L11.1788 12.5583L11.1331 12.6001L11.0871 12.6426L11.0414 12.6854L10.996 12.7286L10.9512 12.7718L10.9061 12.8154L10.8618 12.859L10.8176 12.9033L10.773 12.9476C10.6859 13.0286 10.6014 13.1148 10.5202 13.2065L10.519 13.2082L10.4794 13.2488L10.4756 13.2532L10.4385 13.2915L10.4328 13.2986L10.3979 13.3342L10.39 13.3443L10.3579 13.3772L10.3475 13.3904L10.3178 13.4206L10.3049 13.4365L10.2781 13.4644L10.2633 13.4826L10.2386 13.5081L10.2217 13.5294L10.1995 13.5519L10.18 13.5763L10.1603 13.5964L10.1386 13.6234L10.1218 13.6412L10.0979 13.671L10.0829 13.6861L10.0571 13.7189L10.0446 13.7313L10.0163 13.7668L10.0069 13.7765L9.97665 13.8151L9.96918 13.8221L9.93647 13.863L9.93146 13.8684L9.89681 13.912L9.89432 13.9143C9.81414 14.0053 9.73887 14.0999 9.66865 14.1971L9.63022 14.2465L9.59145 14.2962L9.55332 14.3456L9.51513 14.3957L9.47756 14.4458L9.43998 14.4962L9.40267 14.5471L9.36569 14.5979L9.32896 14.6491L9.29256 14.7006L9.25613 14.7518L9.22031 14.8037L9.18476 14.8556L9.14921 14.9079L9.14159 14.9191L9.11398 14.9601L9.0793 15.0131C9.00905 15.1107 8.9438 15.2113 8.88417 15.3142L8.84976 15.3678L8.81629 15.4209L8.78278 15.4743L8.74957 15.5284L8.71669 15.5821L8.68435 15.6366L8.65173 15.691L8.61969 15.7455L8.58797 15.8L8.55652 15.8549L8.52507 15.9104L8.49452 15.9653L8.46363 16.0212L8.43305 16.0768L8.40339 16.1327L8.3734 16.1887L8.34403 16.2446C8.28411 16.3475 8.2301 16.4523 8.18111 16.5597L8.15229 16.6168L8.12377 16.6735L8.09556 16.7305L8.06792 16.7879L8.0406 16.845L8.01327 16.9024L7.98621 16.9603L7.9598 17.0177L7.93332 17.0759L7.90717 17.1341L7.8816 17.1923L7.85604 17.2508L7.83106 17.3094L7.80608 17.3683L7.78139 17.4272L7.75699 17.4865C7.70835 17.5929 7.66439 17.7019 7.62582 17.8118L7.60231 17.8714L7.5794 17.9308L7.55653 17.9901L7.53389 18.0502L7.51187 18.1102L7.49014 18.1703L7.46841 18.2307L7.44727 18.2908L7.42612 18.3513L7.40559 18.4121L7.38504 18.4729L7.36477 18.5337L7.34512 18.5946L7.32576 18.6558L7.3067 18.717L7.28763 18.7782C7.24935 18.8881 7.21585 18.9993 7.18739 19.112L7.16949 19.1736L7.15192 19.2352L7.13494 19.2968L7.11795 19.3588L7.10123 19.4212L7.08486 19.4828L7.06875 19.5452L7.05294 19.6076L7.03744 19.67L7.02254 19.7324L7.0076 19.7955L6.99299 19.8579L6.97896 19.9207L6.96525 19.9835L6.95184 20.0464C6.9234 20.1584 6.90033 20.2713 6.88202 20.385L6.86987 20.4458L6.8692 20.4482L6.85725 20.5118L6.8453 20.575L6.83397 20.6382L6.82234 20.7015L6.81159 20.7654L6.80114 20.8291L6.79071 20.8923L6.78081 20.9567L6.77129 21.02L6.76172 21.084L6.75308 21.148L6.74412 21.212L6.73603 21.2761L6.72798 21.3398C6.70971 21.4532 6.6965 21.5676 6.68839 21.682L6.68153 21.7458L6.67494 21.8103L6.66838 21.8744L6.6627 21.9389L6.65705 22.003L6.65166 22.0679L6.64662 22.1317L6.64212 22.1966L6.63796 22.2611L6.63406 22.3257L6.63049 22.3903L6.62721 22.4548L6.62422 22.5198L6.61945 22.6494C6.61137 22.7632 6.60838 22.8772 6.61019 22.991L6.60899 23.056L6.60814 23.1203L6.60753 23.1853L6.60756 23.2497L6.60788 23.3148L6.6085 23.3795L6.60911 23.4442L6.61034 23.5093L6.61216 23.5737L6.61397 23.6388L6.61637 23.7036L6.6191 23.7684L6.62211 23.8336L6.62545 23.8981C6.62727 24.0119 6.63389 24.1252 6.64566 24.238L6.65017 24.3029L6.655 24.3674L6.65983 24.4323L6.66557 24.4968L6.67158 24.5614L6.67761 24.626L6.68455 24.6909L6.69117 24.7552L6.69869 24.8202L6.70622 24.8851L6.71466 24.9491L6.7228 25.0138L6.73182 25.0785C6.7433 25.1912 6.75929 25.3028 6.78075 25.4135L6.79039 25.4779L6.80064 25.5423L6.8115 25.606L6.82231 25.6707L6.83379 25.7345L6.84553 25.7985L6.85757 25.863L6.86993 25.9268L6.8829 25.9909L6.89617 26.0547L6.91002 26.1185L6.92358 26.1827L6.93834 26.2462L6.9531 26.31C6.96388 26.3685 6.98039 26.4255 6.99448 26.4834L7.00546 26.4459L7.04359 26.3235L7.06295 26.2622L7.0826 26.2014L7.10287 26.1406L7.14396 26.0189L7.1651 25.9588L7.18624 25.8984L7.2297 25.7775L7.25173 25.7178L7.27434 25.6581L7.29727 25.5985L7.32014 25.5391L7.34365 25.4794C7.38225 25.3692 7.42618 25.2606 7.47485 25.1538L7.49922 25.0949L7.52391 25.0359L7.54889 24.977L7.57387 24.9185L7.59944 24.8603L7.625 24.8021L7.65115 24.7435L7.70407 24.6279L7.7311 24.5701L7.75846 24.5123L7.78578 24.4553L7.8134 24.3982L7.84163 24.3411L7.87012 24.2844L7.89894 24.2274C7.94794 24.12 8.00194 24.0152 8.06186 23.9123L8.09123 23.8563L8.12122 23.8004L8.15089 23.7444L8.18146 23.6888L8.21233 23.6333L8.2429 23.5781L8.30581 23.4677L8.33755 23.4128L8.36956 23.3584L8.40219 23.3042L8.43449 23.2501L8.46741 23.196L8.50065 23.1419L8.56762 23.0352L8.60197 22.9822C8.66163 22.879 8.72688 22.7784 8.79713 22.6808L8.83178 22.6282L8.86704 22.5755L8.90259 22.5233L8.93812 22.4717L8.97396 22.4195L9.01039 22.3679L9.04679 22.3171L9.08352 22.2656L9.12054 22.2144L9.15779 22.1643L9.19539 22.1135L9.23296 22.0637L9.27115 22.0133L9.30928 21.9639L9.34806 21.9138L9.38648 21.8652C9.45674 21.7676 9.53197 21.6729 9.61218 21.582L9.61467 21.5796L9.64929 21.5357L9.65427 21.531L9.68701 21.4898L9.69451 21.4824L9.7247 21.4445L9.7341 21.4341L9.76242 21.399L9.7749 21.3862L9.80073 21.3538L9.81569 21.3386L9.83959 21.3089L9.85646 21.2911L9.87816 21.2641L9.89784 21.2439L9.91731 21.2199L9.93948 21.1971L9.95647 21.1758L9.98113 21.1506L9.99592 21.132L10.0228 21.1042L10.0357 21.0883L10.0653 21.0577L10.0757 21.0449L10.1078 21.012L10.1157 21.0018L10.1506 20.9662L10.1563 20.9588L10.1934 20.9209L10.1972 20.9165L10.2368 20.8758L10.2381 20.8741C10.3192 20.7825 10.4038 20.6962 10.4908 20.6156L10.5354 20.571L10.5796 20.5267L10.6239 20.4831L10.669 20.4395L10.7139 20.3959L10.7592 20.3534L10.805 20.3106L10.851 20.2681L10.8967 20.226L10.9432 20.1842L10.9895 20.1424L11.0832 20.0603L11.1306 20.0196L11.1778 19.9789C11.2666 19.8973 11.3574 19.8213 11.4516 19.751L11.4999 19.7114L11.5484 19.6721L11.5973 19.6329L11.6462 19.5943L11.6953 19.5561L11.7447 19.5183L11.7948 19.4801L11.8448 19.4427L11.8948 19.4059L11.9454 19.3688L11.996 19.3324L12.0469 19.2963L12.0977 19.2606L12.1491 19.225L12.2009 19.19C12.2954 19.1191 12.3926 19.0537 12.4918 18.9948L12.5441 18.9605L12.5964 18.9266L12.6493 18.8931L12.7024 18.8599L12.7559 18.8267L12.809 18.7942L12.8627 18.7621L12.9167 18.7304L12.9711 18.6987L13.0253 18.6676L13.0799 18.6369L13.1348 18.6062L13.159 18.5928L13.1899 18.5759C13.2894 18.5163 13.3914 18.4623 13.4949 18.4135L13.5506 18.3846L13.6066 18.3561L13.7192 18.2997L13.7758 18.2722L13.8326 18.2447L13.8897 18.218L13.9472 18.1912L14.0046 18.1651L14.0623 18.1394L14.1203 18.1141L14.1785 18.0887L14.2368 18.0641L14.2953 18.0398C14.3998 17.9915 14.5055 17.9488 14.6132 17.9117L14.6723 17.8885L14.7317 17.8659L14.7913 17.8438L14.9112 17.8002L14.9717 17.7791L15.032 17.758L15.1535 17.718L15.2146 17.6983L15.2762 17.6794L15.3373 17.6607L15.3992 17.6421C15.5072 17.6051 15.6164 17.5739 15.7266 17.5484L15.7891 17.5312L15.8516 17.5144L15.9143 17.4986L15.9771 17.4825L16.0401 17.4671L16.1037 17.452L16.1669 17.4377L16.2308 17.4237L16.2947 17.41L16.3588 17.3967L16.4229 17.3841L16.4876 17.3715C16.5982 17.3457 16.71 17.3258 16.8222 17.3115L16.8868 17.3007L16.9524 17.2902L17.0176 17.2801L17.0831 17.27L17.1489 17.2609L17.215 17.2522L17.2811 17.2439L17.3471 17.2359L17.4137 17.2286L17.4803 17.2216L17.5472 17.2147L17.552 17.2145L17.5935 17.2049L17.648 17.193L17.7028 17.1818L17.7584 17.1706L17.7714 17.168L17.8219 17.1597L17.878 17.151L17.9342 17.143L17.9906 17.1354L18.047 17.1284L18.104 17.1214L18.1607 17.1152L18.2176 17.1093L18.2749 17.104L18.2914 17.1029L18.3489 17.0998L18.4656 17.0951L18.5239 17.0934L18.5831 17.0921L18.6413 17.0918L18.7008 17.0915L18.7599 17.0916L18.8142 17.0926L18.8451 17.0937L18.905 17.0966L18.9667 17.1006L19.0339 17.1045L19.0893 17.1072L19.2005 17.112L19.2563 17.1148L19.3117 17.1172L19.3672 17.1192L19.4229 17.122L19.5338 17.1267L19.5893 17.1295L19.7005 17.1343L19.7559 17.137L19.8668 17.1418L19.9226 17.1445L20.0338 17.1493L20.0893 17.152L20.2005 17.1568L20.2559 17.1596L20.3668 17.1643L20.4226 17.1671L20.4432 17.1679L20.478 17.1695L20.5335 17.1719L20.5892 17.1746L20.7001 17.1794L20.7559 17.1822L20.8668 17.1869L20.9225 17.1896L21.0334 17.1945L21.0889 17.1972L21.1447 17.1992L21.1998 17.2016L21.2555 17.2043L21.3668 17.2092L21.4225 17.2119L21.5334 17.2167L21.5889 17.2194L21.6998 17.2242L21.7555 17.2269L21.811 17.2293L21.8667 17.2321L21.9776 17.2368L22.0331 17.2396L22.1446 17.2444L22.1997 17.2471L22.3106 17.2519L22.3664 17.2546L22.4776 17.2594L22.533 17.2622L22.6442 17.2669L22.6994 17.2697L22.8109 17.2745L22.8663 17.2772L22.9218 17.2796L22.9776 17.2816L23.033 17.2844L23.0885 17.2868L23.1442 17.2892L23.1994 17.2919L23.3106 17.2967L23.3663 17.2994L23.4218 17.3018L23.4775 17.3042L23.533 17.3069L23.6442 17.3117L23.6993 17.3145L23.8103 17.3192L23.866 17.322L23.9772 17.3268L24.0329 17.3295L24.1442 17.3343L24.1993 17.337L24.3105 17.3418L24.3659 17.3445L24.4772 17.3493L24.5326 17.3521L24.6438 17.3569L24.699 17.3596L24.7547 17.362L24.8102 17.364L24.8659 17.3668L24.8992 17.3684L24.9211 17.3692L24.9771 17.3716L25.0326 17.3743L25.1435 17.3791L25.1992 17.3818L25.3099 17.3866L25.3659 17.3893L25.4768 17.3941L25.5325 17.3969L25.6438 17.4017L25.6989 17.4044L25.8101 17.4092L25.8656 17.4119L25.921 17.4143L25.9768 17.4171L26.0877 17.4218L26.1434 17.4246L26.2543 17.4294L26.3101 17.4321L26.3655 17.4345L26.4207 17.4365L26.4767 17.4393L26.5877 17.4441L26.6431 17.4468L26.7543 17.4516L26.8098 17.4543L26.9207 17.4591L26.9764 17.4618L27.0873 17.4666L27.1434 17.4694L27.2543 17.4742L27.3094 17.4769L27.4206 17.4817L27.4764 17.4844L27.5315 17.4868C27.9188 17.5198 28.3092 17.4851 28.6881 17.3885C29.356 17.2179 29.988 16.8484 30.4993 16.278C31.9217 14.6912 31.8775 12.1661 30.4003 10.6378C29.6582 9.8696 28.6955 9.50022 27.7405 9.52353Z" fill="white"/>
</g>
<defs>
<clipPath id="clip0_462_1680">
<rect width="41" height="41" fill="white" transform="translate(0 2)"/>
</clipPath>
</defs>
</svg>
