<svg width="220" height="220" viewBox="0 0 220 220" fill="none" xmlns="http://www.w3.org/2000/svg">
<g clip-path="url(#clip0_462_1681)">
<path d="M220 110C220 49.2487 170.751 0 110 0C49.2487 0 0 49.2487 0 110C0 170.751 49.2487 220 110 220C170.751 220 220 170.751 220 110Z" fill="#4746BD"/>
<path fill-rule="evenodd" clip-rule="evenodd" d="M156.864 95.1415L156.454 95.1494L155.638 95.161L154.414 95.1844L154.004 95.1902L152.779 95.2136L152.373 95.2195L151.965 95.2273L151.147 95.2389L149.926 95.2624L149.516 95.2682L148.698 95.2837L148.29 95.2895L147.068 95.3129L146.658 95.3169L145.43 95.3403L145.025 95.3461L144.615 95.3538L144.209 95.3617L143.801 95.3675L142.983 95.383L142.167 95.3948L141.35 95.4104L140.942 95.4162L139.72 95.4396L139.308 95.4454L138.492 95.461L137.677 95.4728L136.861 95.4883L136.453 95.4941L136.045 95.5018L135.635 95.5097L135.227 95.5155L134.004 95.5389L133.594 95.5447L133.188 95.5526L132.776 95.5584L132.372 95.5663L131.962 95.5721L131.144 95.5876L130.736 95.5935L129.513 95.6169L129.105 95.6227L128.287 95.6382L127.877 95.6422L127.471 95.65L127.061 95.6577L126.655 95.6656L126.245 95.6714L125.43 95.6869L125.024 95.6928L123.796 95.7162L122.98 95.7278L122.165 95.7435L121.757 95.7493L120.939 95.7649L120.529 95.7707L119.728 95.7863H119.715L119.307 95.7941L118.897 95.7981L118.082 95.8136L117.676 95.8194L116.448 95.8428L116.04 95.8486L114.816 95.8721L114.001 95.8837L113.593 95.8916L113.183 95.8974L112.365 95.9129L111.959 95.9187L110.733 95.9422L110.325 95.948L109.918 95.9558L109.508 95.9616L109.102 95.9693L108.692 95.9753L108.286 95.983C103.577 96.131 98.9406 97.8998 95.552 101.246C92.8955 103.87 91.4095 107.061 91.0633 110.318C90.6554 114.159 91.8593 118.082 94.5731 121.287C95.2765 122.116 96.0569 122.911 96.9651 123.63C97.5936 124.127 98.2594 124.559 98.9406 124.964C101.846 126.688 105.171 127.582 108.507 127.649L108.917 127.656L111.368 127.691L111.776 127.695L112.184 127.701L112.594 127.709L116.679 127.768L117.087 127.775L117.495 127.779L120.765 127.826L121.173 127.834L123.214 127.863L123.624 127.867L124.848 127.884L125.26 127.892L128.119 127.933L128.525 127.937L129.345 127.949L129.753 127.956L137.923 128.073L138.331 128.081L138.585 128.085L138.711 128.087L138.669 128.182L138.508 128.477L138.345 128.767L138.19 129.028L138.025 129.295L137.846 129.575L137.663 129.858L137.478 130.134L137.291 130.413L137.101 130.687L136.713 131.233L136.568 131.428L136.369 131.679L136.158 131.942L135.946 132.203L135.732 132.462L135.296 132.972L135.073 133.227L134.85 133.477L134.7 133.639L134.689 133.646L134.497 133.853L134.434 133.909L134.259 134.094L134.176 134.168L134.021 134.334L133.915 134.427L133.776 134.574L133.653 134.683L133.534 134.809L133.386 134.936L133.287 135.045L133.12 135.189L133.038 135.279L132.851 135.44L132.787 135.51L132.579 135.69L132.535 135.738L132.403 135.853L132.149 136.068L131.883 136.29L131.616 136.506L131.349 136.72L131.076 136.936L130.802 137.149L130.251 137.569L129.971 137.776L129.777 137.914L129.526 138.091L129.237 138.288L128.946 138.483L128.73 138.623L128.651 138.674L128.355 138.867L128.06 139.058L127.76 139.245L127.46 139.43L127.156 139.615L126.854 139.796L126.64 139.921L126.347 140.084L126.034 140.256L125.721 140.425L125.403 140.593L125.086 140.758L124.766 140.922L124.446 141.083L123.798 141.403L123.472 141.559L123.201 141.683L122.919 141.814L122.584 141.96L122.248 142.102L121.913 142.243L121.576 142.385L121.239 142.521L120.899 142.657L120.555 142.792L120.216 142.922L119.87 143.053L119.526 143.183L119.257 143.279L118.921 143.392L118.571 143.509L118.22 143.622L117.868 143.737L117.51 143.846L117.158 143.955L116.801 144.064L116.443 144.169L116.086 144.27L115.727 144.372L115.365 144.473L115.081 144.547L114.728 144.633L114.362 144.722L113.996 144.806L113.633 144.89L113.264 144.972L112.896 145.051L112.528 145.129L111.787 145.277L111.417 145.349L111.044 145.418L110.74 145.47L110.385 145.529L110.008 145.585L109.258 145.694L108.881 145.745L108.127 145.842L107.75 145.887L107.371 145.932L106.992 145.971L106.613 146.012L106.293 146.041L105.947 146.068L105.561 146.096L105.184 146.119L104.803 146.142L104.421 146.164L103.656 146.199L103.273 146.212L102.894 146.224L102.126 146.244L101.811 146.245H101.461L100.696 146.234L99.9304 146.214L99.1633 146.187L98.7797 146.17L98.3961 146.15L98.0169 146.129L97.6332 146.105L97.3555 146.084L96.9851 146.051L96.6015 146.016L96.2222 145.977L95.8408 145.938L95.4572 145.893L95.0802 145.85L94.701 145.801L94.3196 145.753L94.2601 145.745L94.2359 145.784L94.4828 145.838L94.9369 145.938L95.3888 146.033L95.7504 146.103L96.1958 146.183L96.6543 146.265L97.1151 146.343L97.576 146.417L98.0389 146.491L98.4996 146.561L98.9648 146.627L99.4279 146.693L99.8952 146.758L100.36 146.818L100.826 146.875L101.211 146.918L101.652 146.96L102.122 147.005L102.591 147.044L103.061 147.081L103.533 147.116L104 147.149L104.474 147.179L104.944 147.206L105.416 147.231L105.89 147.254L106.362 147.272L106.758 147.284L107.195 147.292L107.665 147.297L108.138 147.299L108.612 147.297L109.089 147.293L109.56 147.288L110.037 147.28L110.511 147.268L110.985 147.254L111.457 147.239L111.933 147.219L112.321 147.198L112.753 147.171L113.227 147.138L113.701 147.099L114.173 147.06L114.647 147.017L115.116 146.972L115.59 146.925L116.06 146.875L116.534 146.822L117.003 146.766L117.475 146.709L117.815 146.662L118.271 146.594L118.741 146.52L119.206 146.442L119.675 146.366L120.141 146.284L120.608 146.199L121.071 146.113L121.539 146.022L121.999 145.93L122.464 145.835L122.874 145.745L123.227 145.665L123.684 145.556L124.142 145.443L124.601 145.326L125.055 145.207L125.511 145.087L125.968 144.962L126.42 144.835L126.874 144.707L127.323 144.574L127.747 144.446L128.044 144.352L128.492 144.204L128.935 144.054L129.378 143.9L129.821 143.744L130.262 143.587L130.703 143.425L131.142 143.259L131.579 143.094L132.015 142.924L132.399 142.766L132.681 142.652L133.113 142.465L133.538 142.276L133.964 142.085L134.389 141.892L134.813 141.695L135.655 141.294L136.072 141.089L136.49 140.881L136.704 140.768L137.099 140.558L137.507 140.335L137.912 140.108L138.316 139.878L138.717 139.646L139.118 139.41L139.518 139.175L139.917 138.933L140.311 138.691L140.525 138.553L140.737 138.415L140.867 138.331L141.253 138.072L141.634 137.809L142.015 137.544L142.392 137.277L142.767 137.006L143.142 136.734L143.51 136.461L143.872 136.19L144.233 135.914L144.333 135.836L144.355 135.816L144.661 135.573L144.727 135.51L145.007 135.288L145.095 135.205L145.353 135.004L145.461 134.897L145.693 134.714L145.825 134.589L146.035 134.425L146.184 134.277L146.374 134.129L146.548 133.96L146.738 133.812L146.949 133.609L147.108 133.483L147.348 133.255L147.474 133.153L147.739 132.898L147.836 132.822L148.129 132.542L148.164 132.513L148.422 132.265L148.757 131.928L149.092 131.589L149.419 131.248L149.743 130.908L150.065 130.563L150.384 130.216L150.695 129.873L151.006 129.525L151.268 129.219L151.465 128.985L151.749 128.632L152.031 128.278L152.307 127.925L152.58 127.569L152.849 127.21L153.116 126.854L153.376 126.494L153.634 126.133L153.762 125.946L153.985 125.609L154.218 125.247L154.448 124.879L154.677 124.514L154.897 124.146L155.118 123.778L155.334 123.406L155.543 123.038L155.735 122.689L155.819 122.533L156.008 122.159L156.194 121.785L156.377 121.407L156.553 121.033L156.564 121.008L156.727 120.656L156.899 120.278L157.067 119.9L157.228 119.52L157.289 119.37L157.421 119.031L157.562 118.649L157.702 118.267L157.836 117.882L157.966 117.498L158.094 117.112L158.218 116.73L158.339 116.341L158.455 115.955L158.48 115.866L158.578 115.48L158.673 115.092L158.765 114.707L158.854 114.313L158.939 113.925L159.021 113.536L159.099 113.146L159.175 112.755L159.245 112.369L159.258 112.291L159.311 111.898L159.363 111.508L159.41 111.116L159.454 110.723L159.494 110.33L159.533 109.936L159.566 109.545L159.597 109.151L159.626 108.758L159.63 108.668L159.645 108.302L159.651 107.91L159.656 107.517L159.657 107.121L159.656 106.728L159.651 106.336L159.64 105.943L159.629 105.545L159.613 105.154L159.596 104.76L159.591 104.71L159.558 104.318L159.52 103.925L159.478 103.531L159.437 103.14L159.388 102.748L159.34 102.357L159.286 101.965L159.23 101.572L159.172 101.182L159.109 100.789L159.098 100.716L159.027 100.36L158.945 99.9705L158.864 99.5828L158.776 99.1952L158.684 98.8056L158.592 98.4161L158.497 98.0323L158.397 97.6446L158.295 97.2609L158.189 96.8732L158.083 96.4876L158.07 96.4428L157.954 96.0765L157.828 95.6948L157.699 95.3148L157.635 95.1278L157.273 95.1357L156.864 95.1415Z" fill="white"/>
<path fill-rule="evenodd" clip-rule="evenodd" d="M100.322 78.9395L99.9193 78.9913L99.5164 79.0452L99.1169 79.1027L98.7176 79.1623L98.3183 79.2239L97.9207 79.2872L97.5251 79.3564L97.1312 79.4255L96.7354 79.4967L96.3452 79.5696C95.6668 79.6714 94.9922 79.8041 94.3267 79.9692L93.9364 80.0519L93.5498 80.1345L93.1632 80.221L92.7785 80.3093L92.3937 80.3996L92.0126 80.4919L91.6297 80.5879L91.2505 80.6858L90.873 80.7876L90.4954 80.8876L90.1198 80.9932L89.7443 81.1008C89.0805 81.2641 88.424 81.4581 87.7767 81.6849L87.4047 81.8001L87.0381 81.9154L86.668 82.0325L86.3014 82.1537L85.5721 82.3996L85.211 82.5283L84.8482 82.657L84.1297 82.9221L83.7722 83.0566L83.4168 83.193L83.0629 83.3332C82.4175 83.5599 81.5768 83.0854 80.9532 83.3736L80.6031 83.5195L80.2547 83.6674L79.9065 83.8192L79.56 83.971L79.2154 84.1247L78.8725 84.2803L78.5298 84.4398L78.1888 84.5993L77.8495 84.7625L77.5123 84.9258L76.8413 85.2601L76.5075 85.4292L76.1756 85.6001C75.5574 85.8902 74.6862 85.8115 74.0954 86.1611L73.9112 86.2611L73.7673 86.3398L73.4407 86.5203L73.1162 86.7011L72.7934 86.8835L72.4707 87.0699L72.1498 87.2563L71.8306 87.4445L71.5152 87.6346L71.198 87.8287L70.8824 88.0228L70.5688 88.2188L70.2587 88.4166L69.9488 88.6163C69.3599 88.9622 68.7836 89.3426 68.2256 89.7537L67.9193 89.9574L67.6148 90.1648L67.3139 90.3722L67.0129 90.5817L66.7139 90.7931L66.4149 91.0082L66.1194 91.2214L65.824 91.4386L65.5287 91.6596L65.2369 91.8785L64.947 92.0994L64.6588 92.3222L64.3707 92.549L64.0844 92.7757L63.8 93.0042C63.2439 93.4115 61.848 93.3732 61.3266 93.842L61.0494 94.0764L60.7703 94.3107L60.2197 94.7834L59.948 95.0235L59.6744 95.2636L59.4064 95.5056L59.1365 95.7497L58.8684 95.9956L58.6022 96.2396L58.3396 96.4893L58.0753 96.739L57.8163 96.9889L57.5573 97.2424L57.2966 97.4979C56.7861 97.961 56.2919 98.4547 55.8195 98.9772L55.8123 98.9868L55.5806 99.2192L55.5588 99.2442L55.3418 99.4614L55.3089 99.5037L55.1048 99.7073L55.0592 99.7648L54.8713 99.9531L54.8111 100.026L54.6379 100.201L54.5631 100.291L54.4063 100.451L54.3207 100.556L54.1766 100.7L54.0782 100.821L53.9487 100.952L53.8356 101.089L53.7207 101.204L53.5948 101.357L53.4965 101.459L53.3578 101.628L53.2703 101.715L53.1207 101.899L53.0478 101.972L52.8837 102.172L52.8291 102.232L52.654 102.447L52.6102 102.489L52.4207 102.724L52.3914 102.75L52.1907 103L52.1763 103.014C51.7094 103.532 51.2737 104.07 50.8687 104.624L50.6464 104.9L50.422 105.185L50.2013 105.465L49.9807 105.751L49.7637 106.034L49.5468 106.322L49.3315 106.606L49.1183 106.896L48.9068 107.188L48.697 107.476L48.4874 107.768L48.2812 108.064L48.0771 108.356L47.8728 108.652L47.6704 108.95L47.4716 109.248C47.0668 109.801 46.693 110.37 46.3538 110.952L46.1569 111.251L45.774 111.855L45.5843 112.16L45.3965 112.466L45.2124 112.771L45.0263 113.077L44.844 113.384L44.6634 113.693L44.3061 114.316L44.1328 114.627L43.9577 114.94L43.7846 115.253L43.6167 115.568L43.4472 115.883L43.2812 116.199C42.9402 116.779 42.6357 117.368 42.3623 117.972L42.1999 118.292L42.0395 118.611L41.8808 118.932L41.7258 119.253L41.5726 119.574L41.4194 119.899L41.2681 120.223L40.9726 120.873L40.8268 121.201L40.6846 121.528L40.5424 121.854L40.4038 122.183L40.2652 122.513L40.1285 122.844L39.9935 123.174C39.7218 123.774 39.4793 124.383 39.2695 124.999L39.14 125.334L39.0143 125.666L38.8885 126L38.7645 126.334L38.6441 126.669L38.4071 127.345L38.2921 127.683L38.1772 128.019L37.9549 128.699L37.8453 129.039L37.7396 129.379L37.6357 129.721L37.6048 131.244L37.5463 131.453C37.6338 131.736 37.705 132.02 37.8035 132.298L37.9146 132.644L38.0259 132.99L38.1427 133.338L38.2594 133.682L38.3796 134.027L38.5 134.373L38.624 134.715L38.7517 135.061L38.8812 135.405L39.0124 135.745L39.1474 136.089L39.2823 136.431L39.4537 136.85C39.6561 137.411 39.8841 137.964 40.1412 138.508L40.2853 138.846L40.433 139.18L40.5825 139.518L40.7357 139.856L40.8889 140.192L41.0457 140.529L41.2062 140.863L41.3666 141.197L41.5307 141.532L41.6966 141.864L41.8662 142.196L42.0395 142.529C42.3038 143.095 43.2825 144.497 43.6071 145.039L43.7858 145.369L43.9645 145.696L44.1469 146.022L44.3311 146.347L44.5208 146.674L44.7086 146.998L44.9036 147.321L45.0969 147.644L45.2956 147.965L45.4963 148.287L45.6968 148.61L45.9028 148.929L46.1107 149.248C46.4318 149.79 46.7819 150.316 47.1594 150.829L47.3726 151.142L47.5915 151.457L47.8102 151.77L48.0309 152.084L48.2553 152.395L48.4814 152.704L48.7111 153.015L48.9426 153.325L49.1761 153.632L49.4131 153.941L49.6502 154.247L49.8927 154.552L50.137 154.856C50.5126 155.365 50.9176 155.861 51.3497 156.337L51.6013 156.637L51.8512 156.934L52.1083 157.232L52.3672 157.529L52.6279 157.823L52.8905 158.12L53.155 158.413L53.6965 158.997L53.9701 159.286L54.2473 159.575L54.5243 159.865L54.807 160.151C55.2337 160.624 55.6895 161.081 56.1728 161.515L56.4391 161.78L56.4682 161.802L56.7089 162.043L56.7581 162.083L56.9806 162.307L57.0499 162.363L57.2542 162.567L57.3453 162.643L57.5331 162.828L57.6444 162.921L57.8121 163.086L57.9453 163.193L58.0948 163.344L58.248 163.471L58.3792 163.601L58.5543 163.743L58.6674 163.856L58.8643 164.016L58.9573 164.111L59.1761 164.287L59.2509 164.362L59.4897 164.555L59.5463 164.612L59.787 164.81L59.8144 164.838L60.0679 165.044L60.0806 165.057C60.5583 165.486 61.0506 165.888 61.5576 166.26L61.8439 166.49L62.1302 166.719L62.4182 166.944L62.7118 167.17L63.0036 167.395L63.2918 167.615L63.5853 167.833L63.8808 168.05L64.1743 168.267L64.4715 168.481L64.7688 168.691L65.0733 168.907L65.3851 169.127L66.016 169.557C66.523 169.93 67.0463 170.277 67.5805 170.593L68.2188 171.003L68.5397 171.202L68.8606 171.405L69.1834 171.6L69.5081 171.796L69.8326 171.987L70.1572 172.178L70.81 172.552L71.14 172.735L71.4683 172.917L71.7983 173.093C72.3289 173.409 72.8706 173.695 73.4231 173.951L73.7548 174.124L74.0867 174.29L74.4205 174.457L74.756 174.62L75.0934 174.784L75.427 174.944L75.7644 175.101L76.1018 175.257L76.4409 175.408L76.78 175.562L77.121 175.709L77.4603 175.855L77.8013 176L78.1423 176.14C78.691 176.396 79.249 176.619 79.8144 176.817L80.159 176.951L80.5018 177.084L80.8483 177.215L81.1948 177.34L81.5394 177.468L81.8876 177.59L82.2341 177.711L82.7228 177.879L82.9288 177.949L83.6291 178.175L83.9811 178.285L84.3293 178.392C84.5846 178.48 84.8435 178.544 85.1007 178.621C85.5255 178.756 85.9523 178.891 86.3825 178.995L86.7345 179.093L87.0882 179.188L87.442 179.283L87.794 179.377L88.5014 179.555L88.857 179.641L89.2144 179.723L89.5664 179.804H90.3971L90.7563 179.881L91.1119 179.955L91.4673 180.029L91.8249 180.098C92.3937 180.235 92.9682 180.342 93.5443 180.422L93.9035 180.486L94.2591 180.546L94.6184 180.607L94.9776 180.664L95.3351 180.719L95.6943 180.772L96.0536 180.823L96.4109 180.868L96.772 180.917L97.1312 180.961L97.4922 181.003L97.8497 181.041L98.2107 181.079L98.5718 181.113C99.1425 181.195 99.7205 181.249 100.295 181.269L100.656 181.3L101.015 181.327L101.736 181.374L102.095 181.395L102.456 181.414L103.176 181.445L103.898 181.467L104.259 181.475L104.617 181.481L104.978 181.484L105.337 181.487H105.698C106.269 181.508 106.843 181.505 107.412 181.472L107.775 181.465L108.13 181.456L108.49 181.445L109.208 181.418L109.567 181.403L110.284 181.36L110.643 181.337L111.001 181.311L111.358 181.285L112.073 181.223L112.428 181.19C112.997 181.161 113.563 181.101 114.124 181.014L114.48 180.975L115.191 180.892L115.543 180.845L115.9 180.798L116.254 180.747L116.606 180.695L116.96 180.644L117.314 180.587L117.664 180.53L118.019 180.469L118.368 180.409L118.721 180.343L119.073 180.279L119.421 180.211C119.98 180.127 120.536 180.013 121.083 179.874L121.433 179.8L121.779 179.726L122.129 179.646L122.474 179.567L122.822 179.485L123.167 179.402L123.513 179.316L123.856 179.229L124.203 179.14L124.888 178.954L125.233 178.858L125.572 178.763L125.915 178.662L126.256 178.561L126.597 178.458C126.845 178.393 127.088 178.305 127.332 178.23C127.512 178.172 127.695 178.129 127.873 178.062L128.213 177.956L128.548 177.848L128.884 177.736L129.221 177.623L129.892 177.392L130.559 177.155L130.889 177.032L131.223 176.907L131.555 176.779L131.883 176.654L132.213 176.523L132.543 176.39L132.87 176.258L133.196 176.121L133.43 176.024C133.765 175.887 134.102 175.758 134.429 175.601L134.753 175.463L135.076 175.32L135.401 175.177L135.711 175.035L135.722 175.03L136.045 174.884L136.683 174.584L137.002 174.432L137.319 174.276L137.635 174.121L137.952 173.962L138.264 173.802L138.579 173.641L139.203 173.31C139.71 173.065 140.208 172.794 140.693 172.496L140.999 172.324L141.307 172.152L141.612 171.977L141.916 171.801L142.221 171.622L142.521 171.441L142.824 171.257L143.123 171.074L143.422 170.888L143.72 170.7L144.019 170.509L144.609 170.124L144.901 169.93L145.193 169.732C145.676 169.436 146.145 169.112 146.602 168.765L146.891 168.561L147.175 168.358L147.461 168.151L147.746 167.943L148.028 167.731L148.307 167.522L148.588 167.308L148.867 167.092L149.144 166.876L149.42 166.658L149.695 166.436L149.969 166.212L150.242 165.988L150.51 165.762L150.56 165.724C150.899 165.449 151.24 165.174 151.561 164.873L151.829 164.645L152.093 164.414L152.359 164.18L152.62 163.946L152.883 163.708L153.143 163.471L153.4 163.231L153.659 162.989L154.168 162.498L154.42 162.25L154.919 161.75L155.167 161.497C155.587 161.106 155.99 160.686 156.376 160.243L156.386 160.231L156.604 160.004L156.628 159.973L156.83 159.762L156.869 159.714L157.055 159.52L157.108 159.454L157.276 159.277L157.344 159.19L157.5 159.03L157.58 158.926L157.718 158.783L157.817 158.659L157.935 158.534L158.048 158.391L158.152 158.281L158.281 158.12L158.367 158.029L158.508 157.852L158.581 157.776L158.738 157.575L158.791 157.518L158.963 157.302L159 157.261L159.186 157.023L159.208 157L159.409 156.746L159.412 156.74C159.799 156.295 160.157 155.836 160.49 155.365L160.705 155.079L160.919 154.796L161.134 154.508L161.345 154.22L161.555 153.93L161.761 153.636L161.966 153.344L162.171 153.046L162.373 152.752L162.571 152.452L162.772 152.149L162.967 151.849C163.3 151.377 163.606 150.893 163.886 150.397L164.078 150.091L164.265 149.782L164.452 149.471L164.816 148.845L164.995 148.53L165.174 148.211L165.525 147.573L165.696 147.25L165.866 146.925L166.036 146.599C166.312 146.107 166.567 145.602 166.791 145.089L166.953 144.758L167.112 144.428L167.271 144.094L167.423 143.759L167.576 143.421L167.728 143.083L167.876 142.745L168.022 142.401L168.049 142.334L168.165 142.057L168.306 141.713L168.445 141.366L168.581 141.016C168.808 140.505 169.006 139.984 169.178 139.46L169.309 139.106L169.436 138.751L169.56 138.395L169.684 138.038L169.804 137.681L169.923 137.32L170.038 136.956L170.153 136.591L170.263 136.226L170.374 135.859L170.478 135.489C170.652 134.966 170.799 134.434 170.921 133.898L171.017 133.527L171.116 133.151L171.209 132.776L171.298 132.399L171.388 132.021L171.474 131.639L171.559 131.256L171.641 130.872L171.719 130.488L171.796 130.1L171.869 129.71C171.991 129.176 172.086 128.64 172.156 128.098L172.221 127.706L172.287 127.312L172.346 126.918L172.403 126.521L172.458 126.123L172.51 125.723L172.56 125.322L172.607 124.919L172.651 124.515L172.694 124.108L172.733 123.701C172.804 123.161 172.848 122.621 172.87 122.079L172.9 121.67L172.926 121.257L172.951 120.846L172.975 120.429L172.994 120.016L173.01 119.597L173.025 119.176L173.036 118.755L173.043 118.333L173.046 118.192L173.047 117.908L173.05 117.482C173.071 116.944 173.069 116.404 173.039 115.862L173.035 115.44L173.024 115.009L173.013 114.577L172.995 114.147L172.978 113.71L172.958 113.278L172.933 112.84L172.904 112.402L172.876 111.962L172.841 111.522L172.805 111.077C172.75 110.005 172.596 108.936 172.343 107.891C171.638 104.687 170.014 101.667 167.478 99.3075C164.208 96.2684 160.061 94.9005 156.006 95.1445L155.331 95.1598L154.992 95.1656L154.318 95.181H154.281L154.334 95.3654L154.44 95.7401L154.544 96.1166L154.641 96.4777L154.651 96.5219L154.739 96.9023L154.826 97.2846L154.91 97.663L154.994 98.0454L155.073 98.4239L155.149 98.8081L155.224 99.1923L155.297 99.5747L155.364 99.957L155.432 100.341L155.49 100.693L155.499 100.764L155.552 101.152L155.6 101.536L155.647 101.924L155.691 102.31L155.731 102.696L155.771 103.081L155.806 103.469L155.84 103.857L155.871 104.245L155.899 104.631L155.902 104.681L155.917 105.069L155.93 105.455L155.939 105.847L155.948 106.235L155.952 106.621L155.953 107.009L155.952 107.399L155.948 107.788L155.942 108.174L155.931 108.535L155.928 108.623L155.904 109.011L155.879 109.399L155.851 109.786L155.818 110.174L155.786 110.562L155.749 110.95L155.711 111.336L155.667 111.72L155.623 112.108L155.612 112.185L155.554 112.566L155.492 112.952L155.426 113.334L155.359 113.72L155.29 114.102L155.215 114.491L155.14 114.871L155.06 115.253L154.98 115.634L154.96 115.722L154.863 116.102L154.763 116.487L154.66 116.863L154.555 117.244L154.447 117.622L154.336 118.002L154.221 118.379L154.104 118.755L153.995 119.09L153.944 119.238L153.811 119.612L153.672 119.985L153.53 120.358L153.395 120.705L153.386 120.73L153.24 121.099L153.089 121.472L152.936 121.841L152.779 122.21L152.709 122.363L152.551 122.707L152.377 123.07L152.199 123.437L152.016 123.8L151.834 124.163L151.644 124.523L151.455 124.886L151.261 125.243L151.077 125.576L150.972 125.76L150.758 126.115L150.543 126.471L150.322 126.822L150.1 127.176L149.874 127.527L149.646 127.875L149.413 128.225L149.177 128.573L149.015 128.803L148.798 129.105L148.541 129.449L148.284 129.787L148.019 130.129L147.753 130.469L147.485 130.805L147.215 131.141L146.938 131.475L146.661 131.808L146.448 132.052L146.418 132.081L146.176 132.357L146.096 132.432L145.877 132.684L145.773 132.784L145.574 133.009L145.443 133.133L145.268 133.333L145.111 133.479L144.967 133.646L144.81 133.792L144.686 133.938L144.513 134.1L144.403 134.223L144.212 134.403L144.122 134.509L143.909 134.707L143.836 134.789L143.605 135.008L143.55 135.07L143.297 135.31L143.278 135.329L143.196 135.406L142.897 135.679L142.598 135.946L142.294 136.215L141.984 136.484L141.674 136.751L141.362 137.014L141.046 137.275L140.731 137.535L140.412 137.79L140.304 137.873L140.129 138.009L139.952 138.146L139.626 138.384L139.296 138.622L138.966 138.855L138.634 139.087L138.302 139.316L137.968 139.542L137.633 139.767L137.295 139.986L136.969 140.194L136.792 140.305L136.446 140.511L136.101 140.712L135.404 141.108L135.054 141.302L134.702 141.492L134.35 141.681L133.999 141.867L133.641 142.051L133.408 142.165L133.09 142.32L132.729 142.487L132.368 142.651L132.005 142.814L131.641 142.973L131.276 143.129L130.91 143.283L130.543 143.435L130.176 143.583L129.806 143.729L129.56 143.821L129.21 143.948L128.838 144.078L128.462 144.205L128.089 144.33L127.711 144.453L127.334 144.572L126.958 144.689L126.579 144.804L126.2 144.916L125.822 145.023L125.53 145.102L125.191 145.191L124.806 145.285L124.425 145.375L124.039 145.465L123.656 145.55L123.269 145.634L122.884 145.715L122.496 145.79L122.111 145.867L121.723 145.94L121.345 146.007L121.065 146.053L120.674 146.109L120.286 146.165L119.894 146.216L119.505 146.266L119.113 146.312L118.725 146.357L118.333 146.399L117.943 146.437L117.551 146.476L117.159 146.508L116.801 146.535L116.48 146.556L116.086 146.576L115.696 146.591L115.304 146.605L114.912 146.616L114.518 146.624L114.128 146.629L113.734 146.633L113.342 146.635L112.95 146.633L112.562 146.627L112.2 146.62L111.872 146.608L111.482 146.591L111.09 146.568L110.7 146.543L110.311 146.516L109.919 146.487L109.533 146.455L109.142 146.42L108.754 146.384L108.366 146.345L107.977 146.301L107.613 146.259L107.294 146.216L106.909 146.161L106.524 146.101L106.137 146.038L105.754 145.972L105.37 145.907L104.989 145.838L104.606 145.765L104.225 145.692L103.843 145.615L103.464 145.534L103.096 145.456L102.797 145.387L102.423 145.292L102.047 145.194L101.843 145.141L101.672 145.094L101.442 145.033L101.283 145.006L101.008 144.954L100.769 144.91L100.457 144.843L100.147 144.776L99.8372 144.706L99.5255 144.633L99.2154 144.56L98.9073 144.484L98.5972 144.405L98.2891 144.324L97.9828 144.241L97.6946 144.161L97.4922 144.101L97.1877 144.005L96.885 143.907L96.5805 143.805L96.2778 143.705L95.9751 143.6L95.3733 143.385L95.0725 143.273L94.7733 143.158L94.509 143.054L94.3175 142.975L94.0203 142.847L93.7267 142.72L93.4313 142.589L92.8478 142.32L92.5579 142.182L92.2661 142.042L91.9762 141.9L91.688 141.755L91.5385 141.677L91.2649 141.529L90.9841 141.371L90.6997 141.21L90.4189 141.048L90.14 140.883L89.8591 140.716L89.5837 140.547L89.3066 140.376L89.0294 140.201L88.8781 140.103L88.641 139.946L88.3712 139.758L88.1031 139.565L87.8369 139.375L87.5707 139.181L87.3062 138.985L87.0417 138.785L86.7829 138.587L86.5276 138.39L86.2741 138.19L86.2031 138.13L86.1884 138.115L85.9732 137.94L85.924 137.892L85.7252 137.729L85.6633 137.667L85.4808 137.519L85.4024 137.441L85.2365 137.306L85.1436 137.214L84.9959 137.093L84.8882 136.985L84.757 136.876L84.6293 136.751L84.4981 136.643L84.3448 136.491L84.2336 136.399L84.0621 136.228L83.971 136.153L83.7813 135.965L83.712 135.909L83.5043 135.702L83.4787 135.681L83.2945 135.496L82.8132 134.989L82.5761 134.738L82.3427 134.482L82.1111 134.223L81.9487 134.04L81.8813 133.965L81.6552 133.708L81.431 133.447L81.2413 133.216L81.0972 133.039L80.8893 132.774L80.6833 132.505L80.4828 132.24L80.2821 131.969L80.0833 131.698L79.8883 131.427L79.695 131.155L79.5053 130.882L79.4087 130.738L79.2427 130.482L79.0677 130.205L78.8962 129.927L78.7267 129.645L78.5571 129.364L78.3931 129.084L78.2307 128.799L78.0703 128.515L77.9243 128.25L77.8605 128.129L77.7147 127.842L77.5725 127.552L77.432 127.262L77.2953 126.974L77.1586 126.682L77.0236 126.39L76.8941 126.098L76.7665 125.806L76.7171 125.691L76.6114 125.428L76.4965 125.13L76.3854 124.832L76.2759 124.534L76.1684 124.237L76.0626 123.937L75.9605 123.637L75.862 123.337L75.7636 123.036L75.7416 122.967L75.6541 122.663L75.5703 122.359L75.4919 122.058L75.4116 121.752L75.3351 121.449L75.2603 121.141L75.1873 120.836L75.1162 120.529L75.0488 120.227L75.0378 120.166L74.9812 119.858L74.9265 119.547L74.8754 119.24L74.8245 118.93L74.7771 118.619L74.7315 118.31L74.6876 118L74.6476 117.689L74.6075 117.378L74.6001 117.307L74.5728 117.019L74.5473 116.706L74.5236 116.394L74.5035 116.081L74.4835 115.77L74.4651 115.457L74.4507 115.142L74.4378 114.829L74.4196 114.202V114.162L74.4214 113.851L74.4251 113.536L74.4305 113.221L74.4397 112.907L74.4507 112.594L74.4634 112.281L74.478 111.968L74.4962 111.655L74.5145 111.342L74.5344 111.027L74.5399 110.969L74.5673 110.683L74.6001 110.37L74.6366 110.056L74.673 109.745L74.7132 109.432L74.7552 109.119L74.7989 108.81L74.8445 108.496L74.8919 108.183L74.943 107.872L74.9941 107.561L75.0013 107.524L75.0579 107.228L75.1217 106.919L75.1891 106.612L75.2567 106.302L75.3259 105.995L75.397 105.686L75.4718 105.378L75.5466 105.071L75.625 104.766L75.7051 104.458L75.7854 104.153L75.8638 103.878L75.873 103.838L75.966 103.534L76.0626 103.231L76.1593 102.929L76.2577 102.629L76.3579 102.326L76.4619 102.026L76.5658 101.726L76.6716 101.428L76.7811 101.127L76.8905 100.829L77.0035 100.531L77.1056 100.272L77.1166 100.247L77.2387 99.9512L77.3646 99.6592L77.4903 99.3671L77.6198 99.0751L77.7493 98.785L78.0155 98.2049L78.1523 97.9185L78.289 97.6285L78.5698 97.056L78.703 96.7967L78.8489 96.5239L79.002 96.2434L79.1571 95.9648L79.3138 95.6862L79.6348 95.1329L79.7971 94.8601L79.9612 94.5835L80.1271 94.3107L80.2931 94.0379L80.4626 93.7651L80.6195 93.525L80.7708 93.2924L80.9532 93.0292L81.1336 92.766L81.3197 92.5048L81.5039 92.2435L81.6935 91.9842L81.8813 91.7267L82.2643 91.2119L82.4593 90.9582L82.6545 90.7046L82.8478 90.4588L82.9772 90.2993L83.0211 90.2552L83.1833 90.0553L83.2417 89.9976L83.3948 89.8114L83.4659 89.7402L83.6027 89.5692L83.6902 89.4828L83.8142 89.3291L83.9144 89.2273L84.0276 89.089L84.1425 88.9737L84.241 88.8508L84.3722 88.7221L84.4597 88.6144L84.6019 88.4703L84.6767 88.3801L84.8354 88.2206L84.8974 88.1438L85.0669 87.9728L85.1163 87.9133L85.3022 87.725L85.324 87.6981L85.4736 87.5482L85.7052 87.3254L85.9367 87.1063L86.172 86.8854L86.2997 86.7682L86.4072 86.6684L86.646 86.4512L87.1239 86.0209L87.3645 85.8115L87.6089 85.6001L87.8551 85.3908L88.041 85.239L88.2762 85.0507L88.5335 84.8548L88.7887 84.6588L89.0458 84.4648L89.3047 84.2726L89.5654 84.0805L89.8263 83.8942L90.087 83.7059L90.3532 83.5214L90.6177 83.3371L90.8 83.216L90.8273 83.1987L91.1009 83.0258L91.3745 82.8567L91.6515 82.6857L91.9287 82.5187L92.2095 82.3534L92.4886 82.1901L92.7712 82.0287L93.052 81.8692L93.3383 81.7099L93.5899 81.5773L93.8745 81.4332L94.1661 81.2891L94.4616 81.1468L94.7551 81.0086L95.3496 80.732L95.6486 80.5994L95.9514 80.4669L96.2505 80.3361L96.5404 80.2228L96.8467 80.1056L97.1567 79.9923L97.4685 79.877L97.7821 79.7656L98.4094 79.5504L98.7248 79.4467L99.044 79.3449L99.0969 79.3295L99.3723 79.2468L99.6986 79.1566L100.348 78.9875L100.676 78.9049L100.756 78.8857L100.727 78.8876L100.322 78.9395Z" fill="#E1E1F9"/>
<path fill-rule="evenodd" clip-rule="evenodd" d="M148.852 40.3702L148.554 40.3684L148.254 40.3686L147.958 40.3653L147.658 40.3654L147.358 40.3637L147.062 40.364L146.762 40.3623L146.466 40.3626L146.166 40.3609L145.868 40.3612L145.57 40.3576L145.272 40.3579L144.974 40.3562L144.675 40.3565L144.377 40.3548L144.079 40.3551L143.781 40.3533L143.483 40.3537L143.185 40.35L142.887 40.3485L142.589 40.3488L142.289 40.3471L141.991 40.3472L141.693 40.3456L141.393 40.3458L140.499 40.3409L140.201 40.3411L139.903 40.3395L139.605 40.3397L139.306 40.3381L139.009 40.3383L138.71 40.3348L138.412 40.335L138.114 40.3334L137.816 40.3335L137.518 40.332L137.22 40.3321L136.92 40.3305L136.622 40.3307L136.324 40.3273L136.026 40.3274L135.728 40.3258L135.428 40.326L134.833 40.3227L134.536 40.323L133.64 40.3181L133.341 40.3183L133.043 40.3166L132.745 40.3169L132.448 40.3153L132.149 40.3155L131.253 40.3104L130.955 40.3108L130.657 40.309L130.361 40.3093L130.06 40.3076L129.763 40.3079L129.465 40.3045L129.165 40.3046L128.868 40.3029L128.57 40.3032L128.271 40.3015L127.972 40.3018L127.377 40.2985L127.078 40.2968L126.78 40.2952L126.482 40.2955L126.182 40.2938L125.884 40.2939L125.586 40.2924L125.288 40.2925L124.394 40.2877L124.095 40.2878L123.797 40.2862L123.499 40.2864L123.199 40.2848L122.903 40.285L122.007 40.2801L121.709 40.2803L121.413 40.2787L121.113 40.2789L120.815 40.2773L120.515 40.2774L120.217 40.2759L119.921 40.2724L119.621 40.2726L119.323 40.271L119.027 40.2712L118.726 40.2694L118.428 40.2697L117.534 40.2649L117.234 40.265L116.939 40.2634L116.638 40.2636L116.342 40.262L116.044 40.2622L115.146 40.2572L114.85 40.2575L114.55 40.2558L114.252 40.2561L113.954 40.2543L113.656 40.2546L112.463 40.2481L112.165 40.2482L111.867 40.2466L111.569 40.247L111.269 40.2452L110.973 40.2455L110.673 40.2419L110.375 40.2421L110.079 40.2405L109.777 40.2407L109.481 40.2391L109.181 40.2393L108.287 40.2344L107.99 40.2347L107.692 40.233L107.393 40.2333L107.096 40.2316L106.796 40.2317L105.9 40.2268L105.604 40.2272L105.304 40.2254L105.006 40.2256L104.41 40.2224L104.114 40.2226L103.813 40.219L103.516 40.2193L103.218 40.2177L102.632 40.2055L102.259 40.1992L101.885 40.1948L101.513 40.1942L101.144 40.1956L100.775 40.2006L100.404 40.2075L99.672 40.229L99.3041 40.2435L98.5762 40.2803L98.2144 40.3041C97.605 40.3155 96.9961 40.3584 96.3908 40.4349L95.6698 40.4981L95.3111 40.5315L94.5961 40.6096L94.2417 40.6508L93.5327 40.7442L93.1797 40.7929L92.8282 40.8452L92.4781 40.8996L92.1266 40.9557L91.7795 41.0176C91.1774 41.0905 90.5775 41.1991 89.9843 41.3378L89.6371 41.4035L89.2931 41.4711L88.949 41.5424L88.2635 41.6927L87.924 41.7716L87.5826 41.8523L87.2445 41.9351L86.908 42.018L86.5713 42.1045L85.9009 42.2851C85.3094 42.422 84.7233 42.5909 84.144 42.7898L83.8117 42.8896L83.4843 42.9877L83.1534 43.0931L82.8258 43.1967L82.4995 43.3042L82.1733 43.4135L81.8502 43.5248L81.5256 43.6379L81.2039 43.753L80.8822 43.8718L80.562 43.9907L80.2434 44.1116L79.9262 44.2379C79.3487 44.4351 78.7812 44.6625 78.2207 44.9256L77.9066 45.054L77.594 45.1863L77.2813 45.3203L76.9703 45.4564L76.6607 45.5942L76.3526 45.736L76.0444 45.8796L75.7378 46.0232L75.4328 46.1706L75.1294 46.3163L74.5255 46.6188L74.2249 46.7739L73.926 46.9309C73.3703 47.1886 72.8232 47.4784 72.2893 47.8002L71.9934 47.963L71.6989 48.1275L71.406 48.2922L71.1149 48.4589L70.8233 48.6293L70.5336 48.7996L70.2454 48.9718L69.9602 49.148L69.6734 49.3242L69.388 49.5022L69.1044 49.6821L68.5432 50.0461C68.0111 50.3662 67.4892 50.7128 66.9823 51.0936L66.7046 51.2831L66.4285 51.4745L66.1557 51.6642L65.8828 51.8595L65.6114 52.0548L65.3399 52.2539L65.0716 52.4513L64.8032 52.6523L64.5346 52.8552L64.2694 53.0601L64.0057 53.265L63.7436 53.4719L63.4813 53.6825L63.2206 53.8914L62.9615 54.1057C62.4561 54.4828 61.9691 54.8906 61.4922 55.3303L61.2394 55.545L60.9849 55.7634L60.7335 55.9837L60.4821 56.2059L60.2338 56.4283L59.9839 56.6542L59.7388 56.8785L59.4919 57.1065L59.2468 57.3364L59.0029 57.5682L58.7625 57.8001L58.5203 58.034L58.2829 58.2678L58.0454 58.5055L57.8063 58.743C57.3392 59.1776 56.8856 59.6406 56.4501 60.1323L56.4434 60.1414L56.2307 60.3594L56.2106 60.3829L56.0114 60.5885L55.9809 60.6265L55.7934 60.8174L55.7511 60.8718L55.5788 61.0484L55.523 61.1191L55.3639 61.2813L55.2948 61.3665L55.1507 61.5161L55.0713 61.614L54.939 61.751L54.8479 61.8652L54.7291 61.9859L54.6244 62.1165L54.5188 62.2246L54.4024 62.3697L54.3119 62.4652L54.1836 62.6247L54.1032 62.7058L53.9647 62.8818L53.8978 62.9484L53.7459 63.1387L53.6956 63.1911L53.5332 63.3979L53.4932 63.4356L53.3176 63.6549L53.2908 63.6839L53.1049 63.9179L53.0915 63.9304C52.6612 64.4185 52.2574 64.9264 51.8806 65.4481L51.6744 65.7131L51.4663 65.9799L51.2617 66.2448L51.0568 66.5135L50.8552 66.7824L50.6536 67.053L50.4534 67.3257L50.2549 67.5984L50.0579 67.873L49.8625 68.1495L49.667 68.4242L49.4749 68.7027L49.2841 68.9813L49.0933 69.2617L49.0525 69.3218L48.9043 69.5421L48.7182 69.8266C48.3412 70.3502 47.9911 70.8898 47.6712 71.4419L47.4865 71.7299L47.3069 72.0145L47.1271 72.3009L46.9489 72.5912L46.7725 72.8795L46.599 73.1718L46.4239 73.4641L46.252 73.7564L46.0818 74.0489L45.9131 74.3432L45.7443 74.6411L45.5804 74.9356L45.4146 75.2358L45.2505 75.5339L45.0914 75.8341L44.9304 76.1343L44.7728 76.4346C44.4513 76.9865 44.1615 77.5489 43.8986 78.1253L43.744 78.4314L43.591 78.7356L43.4396 79.0418L43.2913 79.3499L43.1447 79.6562L42.9981 79.9643L42.8529 80.2745L42.7111 80.5828L42.5691 80.8949L42.4287 81.2072L42.2915 81.5194L42.1544 81.8335L42.0203 82.1478L41.8863 82.4639L41.7538 82.7802L41.6229 83.0982C41.3619 83.6691 41.126 84.254 40.9191 84.8436L40.7929 85.1639L40.67 85.4823L40.5473 85.8006L40.4258 86.1228L40.3076 86.4451L40.191 86.7675L40.0744 87.0917L39.961 87.4142L39.8475 87.7385L39.7373 88.0649L39.627 88.3911L39.5183 88.7175L39.4128 89.044L39.309 89.3725L39.2067 89.7011L39.1044 90.0295C38.899 90.6192 38.7192 91.2156 38.5665 91.8203L38.4705 92.1509L38.3762 92.4815L38.285 92.8123L38.1939 93.1448L38.1042 93.4794L38.0163 93.8103L37.9299 94.1451L37.845 94.4798L37.7619 94.8145L37.6819 95.1495L37.6018 95.4882L37.5234 95.823L37.4481 96.1599L37.3745 96.497L37.3026 96.8341C37.15 97.4352 37.0262 98.0409 36.9279 98.6514L36.8627 98.9775L36.8591 98.9904L36.795 99.3316L36.7309 99.6708L36.6701 100.01L36.6077 100.349L36.55 100.693L36.4939 101.034L36.438 101.373L36.3849 101.719L36.3338 102.058L36.2824 102.402L36.236 102.745L36.188 103.089L36.1446 103.433L36.1014 103.775C36.0033 104.383 35.9324 104.997 35.8889 105.611L35.8521 105.953L35.8168 106.299L35.7816 106.643L35.7511 106.989L35.7208 107.333L35.6919 107.681L35.6648 108.024L35.6406 108.372L35.6183 108.718L35.5974 109.065L35.5782 109.411L35.5606 109.758L35.5446 110.106L35.519 110.801C35.4756 111.412 35.4596 112.024 35.4693 112.634L35.4629 112.983L35.4583 113.328L35.455 113.677L35.4552 114.023L35.4569 114.372L35.4602 114.719L35.4635 115.066L35.4701 115.416L35.4799 115.761L35.4896 116.111L35.5025 116.459L35.5171 116.806L35.5333 117.156L35.5512 117.502C35.561 118.112 35.5965 118.72 35.6596 119.326L35.6838 119.674L35.7098 120.02L35.7357 120.368L35.7665 120.715L35.7987 121.061L35.8311 121.408L35.8683 121.756L35.9038 122.101L35.9442 122.45L35.9846 122.798L36.0299 123.142L36.0736 123.489L36.122 123.836C36.1836 124.441 36.2694 125.039 36.3845 125.634L36.4362 125.979L36.4912 126.324L36.5495 126.666L36.6075 127.014L36.6691 127.356L36.7321 127.699L36.7967 128.045L36.863 128.388L36.9327 128.732L37.0038 129.074L37.0782 129.416L37.1509 129.761L37.2301 130.102L37.3093 130.444C37.3672 130.758 37.4558 131.064 37.5314 131.374L37.5903 131.173L37.7949 130.516L37.8988 130.188L38.0042 129.861L38.113 129.535L38.3334 128.882L38.4469 128.56L38.5603 128.235L38.7935 127.587L38.9117 127.266L39.033 126.946L39.1561 126.626L39.2788 126.307L39.405 125.987C39.6121 125.396 39.8478 124.813 40.109 124.24L40.2397 123.924L40.3722 123.607L40.5062 123.291L40.6403 122.977L40.7775 122.665L40.9147 122.353L41.055 122.039L41.3389 121.418L41.484 121.108L41.6308 120.798L41.7774 120.492L41.9256 120.185L42.077 119.879L42.2299 119.575L42.3846 119.269C42.6475 118.693 42.9372 118.13 43.2588 117.578L43.4164 117.278L43.5773 116.978L43.7365 116.677L43.9005 116.379L44.0662 116.081L44.2302 115.785L44.5678 115.192L44.7381 114.898L44.9099 114.606L45.0849 114.315L45.2582 114.025L45.4349 113.735L45.6132 113.445L45.9726 112.872L46.1569 112.587C46.477 112.033 46.8272 111.494 47.2042 110.97L47.39 110.688L47.5792 110.405L47.77 110.125L47.9606 109.848L48.153 109.568L48.3485 109.291L48.5438 109.018L48.7408 108.742L48.9395 108.467L49.1394 108.199L49.3411 107.926L49.5427 107.659L49.7477 107.388L49.9523 107.123L50.1603 106.855L50.3665 106.594C50.7435 106.07 51.1472 105.562 51.5776 105.074L51.5909 105.061L51.7767 104.826L51.8034 104.8L51.9791 104.579L52.0193 104.54L52.1813 104.337L52.2318 104.28L52.3837 104.092L52.4507 104.024L52.5893 103.849L52.6696 103.768L52.7978 103.609L52.8883 103.513L53.0048 103.368L53.1104 103.26L53.2149 103.131L53.3338 103.009L53.425 102.895L53.5573 102.759L53.6366 102.66L53.7807 102.51L53.8499 102.425L54.0089 102.261L54.0647 102.192L54.2371 102.015L54.2793 101.961L54.4668 101.77L54.4973 101.73L54.6966 101.527L54.7167 101.503L54.9293 101.285L54.936 101.276C55.3715 100.784 55.8252 100.321 56.2922 99.8885L56.5314 99.6491L56.7688 99.4114L57.0062 99.1776L57.2484 98.9437L57.489 98.7099L57.7326 98.4819L57.9779 98.252L58.2247 98.024L58.4699 97.7978L58.7197 97.5738L58.968 97.3495L59.4707 96.9089L59.7253 96.6905L59.9783 96.472C60.4551 96.0342 60.942 95.6265 61.4474 95.2493L61.7065 95.0369L61.9672 94.8261L62.2295 94.6155L62.4916 94.4086L62.7553 94.2037L63.0206 94.0006L63.2891 93.7959L63.5575 93.5949L63.8258 93.3975L64.0973 93.1984L64.3687 93.0031L64.6417 92.8097L64.9145 92.6181L65.1906 92.4267L65.4681 92.2391C65.9752 91.8583 66.4971 91.5079 67.0291 91.1916L67.3098 91.0077L67.5903 90.8257L67.8741 90.6458L68.1593 90.4678L68.4461 90.2899L68.7313 90.1154L69.0195 89.9432L69.3093 89.7729L69.6008 89.6025L69.8921 89.4358L70.1849 89.2711L70.4794 89.1066L70.6092 89.0348L70.7753 88.9438C71.3091 88.6238 71.8563 88.3341 72.4119 88.0726L72.7108 87.9175L73.0112 87.7643L73.6153 87.4618L73.9187 87.3142L74.2239 87.1668L74.5303 87.0232L74.8385 86.8796L75.1465 86.7397L75.4561 86.6017L75.7672 86.4658L76.0799 86.3299L76.3925 86.1976L76.7066 86.0673C77.2672 85.808 77.8346 85.5787 78.4123 85.3798L78.7294 85.2552L79.0479 85.1343L79.3682 85.0154L80.0115 84.7815L80.3361 84.6684L80.6594 84.5553L81.3117 84.3403L81.6393 84.2348L81.9701 84.1332L82.2976 84.0332L82.63 83.9335C83.2092 83.7345 83.7953 83.5675 84.3868 83.4306L84.722 83.3384L85.0572 83.2481L85.3938 83.1634L85.7305 83.0769L86.0687 82.994L86.4099 82.9133L86.7495 82.8363L87.0922 82.7612L87.4348 82.6879L87.7789 82.6166L88.1231 82.5489L88.4702 82.4815C89.0634 82.3427 89.6634 82.236 90.2655 82.1593L90.6124 82.1012L90.964 82.0449L91.314 81.9907L91.6657 81.9365L92.0186 81.8878L92.3731 81.8411L92.7277 81.7963L93.082 81.7534L93.4395 81.7143L93.7968 81.677L94.1559 81.6398L94.1817 81.6389L94.4044 81.5873L94.6967 81.5233L94.9905 81.4633L95.2891 81.4034L95.3588 81.3892L95.6296 81.345L95.931 81.2982L96.2323 81.2551L96.5349 81.2141L96.8376 81.1767L97.1435 81.1393L97.4476 81.1058L97.7532 81.0741L98.0603 81.0461L98.1492 81.0401L98.4575 81.0235L99.0835 80.998L99.3963 80.9889L99.7141 80.982L100.027 80.9804L100.346 80.979L100.663 80.9795L100.954 80.9847L101.12 80.9908L101.442 81.0063L101.773 81.0279L102.133 81.0486L102.43 81.0632L103.027 81.089L103.326 81.1036L103.624 81.1165L103.922 81.1275L104.221 81.1423L104.816 81.1679L105.113 81.1825L105.71 81.2083L106.007 81.2229L106.603 81.2485L106.902 81.2633L107.498 81.2889L107.796 81.3037L108.393 81.3293L108.69 81.344L109.285 81.3697L109.585 81.3844L109.695 81.3885L109.882 81.3972L110.18 81.4101L110.479 81.4248L111.074 81.4504L111.373 81.4652L111.968 81.4908L112.267 81.5054L112.862 81.5312L113.16 81.5458L113.459 81.5568L113.755 81.5695L114.054 81.5843L114.651 81.6101L114.95 81.6247L115.545 81.6503L115.843 81.6651L116.438 81.6907L116.737 81.7055L117.035 81.7182L117.334 81.733L117.929 81.7586L118.226 81.7734L118.825 81.7991L119.12 81.8137L119.716 81.8394L120.015 81.8541L120.612 81.8797L120.909 81.8945L121.506 81.9201L121.802 81.9348L122.4 81.9605L122.697 81.9751L122.995 81.988L123.294 81.999L123.592 82.0136L123.889 82.0265L124.189 82.0394L124.484 82.054L125.081 82.0798L125.38 82.0944L125.678 82.1073L125.977 82.1202L126.275 82.1348L126.871 82.1606L127.167 82.1752L127.762 82.2008L128.061 82.2156L128.658 82.2412L128.957 82.256L129.554 82.2817L129.85 82.2963L130.447 82.322L130.744 82.3366L131.341 82.3623L131.638 82.3769L132.235 82.4027L132.531 82.4173L132.83 82.4302L133.128 82.4412L133.427 82.4558L133.606 82.4643L133.723 82.4687L134.024 82.4816L134.321 82.4962L134.916 82.5218L135.215 82.5366L135.809 82.5622L136.11 82.577L136.705 82.6026L137.004 82.6174L137.601 82.6432L137.897 82.6578L138.493 82.6834L138.791 82.6981L139.088 82.7109L139.388 82.7256L139.983 82.7513L140.282 82.766L140.877 82.7917L141.176 82.8064L141.474 82.8192L141.77 82.8302L142.07 82.8449L142.665 82.8705L142.963 82.8851L143.56 82.9109L143.857 82.9255L144.452 82.9511L144.752 82.9659L145.347 82.9915L145.647 83.0065L146.242 83.0321L146.538 83.0467L147.135 83.0723L147.434 83.0871L147.73 83.0998C149.808 83.2771 151.903 83.091 153.936 82.5723C157.52 81.6569 160.911 79.6744 163.655 76.6134C171.287 68.099 171.05 54.5499 163.124 46.3494C159.142 42.2271 153.976 40.2451 148.852 40.3702Z" fill="white"/>
</g>
<defs>
<clipPath id="clip0_462_1681">
<rect width="220" height="220" fill="white"/>
</clipPath>
</defs>
</svg>
